SplineFontDB: 3.0
FontName: LisuTzimu-Bold
FullName: LisuTzimu Bold
FamilyName: LisuTzimu
Weight: Bold
Copyright: Copyright (c) 1998-2009 by David Morse; licensed under the SIL Open Font License with Reserved Font Name "LisuTzimu".
Version: 2.002
ItalicAngle: 0
UnderlinePosition: -307
UnderlineWidth: 82
Ascent: 1638
Descent: 410
sfntRevision: 0x00020083
LayerCount: 2
Layer: 0 1 "Back"  1
Layer: 1 1 "Fore"  0
XUID: [1021 646 1676337484 8981792]
FSType: 0
OS2Version: 3
OS2_WeightWidthSlopeOnly: 0
OS2_UseTypoMetrics: 1
CreationTime: 1244570400
ModificationTime: 1378801852
PfmFamily: 17
TTFWeight: 700
TTFWidth: 5
LineGap: 0
VLineGap: 0
Panose: 2 11 8 1 4 10 2 8 2 1
OS2TypoAscent: 1638
OS2TypoAOffset: 0
OS2TypoDescent: -410
OS2TypoDOffset: 0
OS2TypoLinegap: 0
OS2WinAscent: 1638
OS2WinAOffset: 0
OS2WinDescent: 410
OS2WinDOffset: 0
HheadAscent: 1638
HheadAOffset: 0
HheadDescent: -410
HheadDOffset: 0
OS2SubXSize: 1434
OS2SubYSize: 1331
OS2SubXOff: 0
OS2SubYOff: 293
OS2SupXSize: 1434
OS2SupYSize: 1331
OS2SupXOff: 0
OS2SupYOff: 928
OS2StrikeYSize: 102
OS2StrikeYPos: 530
OS2Vendor: 'PYRS'
OS2CodePages: 00040001.00000000
OS2UnicodeRanges: 80000023.00016000.00000000.00000000
Lookup: 258 0 0 "'kern' Horizontal Kerning in Latin lookup 0"  {"'kern' Horizontal Kerning in Latin lookup 0 subtable"  } ['kern' ('latn' <'dflt' > ) ]
DEI: 91125
KernClass2: 3+ 3 "'kern' Horizontal Kerning in Latin lookup 0 subtable"
 63 uniA4D1 uniA4D4 uniA4DD uniA4E6 uniA4E9 uniA4EA uniA4EC uniA4EF
 9 afii57929
 31 uniA4D5 uniA4E1 uniA4E5 uniA4EE
 44 macronlowmod uniA4F8 uniA4F9 uniA4FA uniA4FB
 9 afii57929
 0 {} -246 {} 0 {} 0 {} -164 {} 0 {} 0 {} 0 {} -246 {}
TtTable: prep
PUSHW_1
 0
CALL
EndTTInstrs
TtTable: fpgm
PUSHW_1
 0
FDEF
MPPEM
PUSHW_1
 3
LT
IF
PUSHB_2
 1
 1
INSTCTRL
EIF
PUSHW_1
 511
SCANCTRL
PUSHW_1
 68
SCVTCI
PUSHW_2
 3
 3
SDS
SDB
ENDF
PUSHW_1
 1
FDEF
DUP
DUP
RCVT
ROUND[Black]
WCVTP
PUSHB_1
 1
ADD
ENDF
PUSHW_1
 2
FDEF
PUSHW_1
 1
LOOPCALL
POP
ENDF
PUSHW_1
 3
FDEF
DUP
GC[cur]
PUSHB_1
 3
CINDEX

StartChar: .notdef
Encoding: 166 -1 0
Width: 1024
Flags: W
LayerCount: 2
Fore
SplineSet
129 0 m 1,0,-1
 129 1638 l 1,1,-1
 897 1638 l 1,2,-1
 897 0 l 1,3,-1
 129 0 l 1,0,-1
256 129 m 1,4,-1
 768 129 l 1,5,-1
 768 1511 l 1,6,-1
 256 1511 l 1,7,-1
 256 129 l 1,4,-1
EndSplineSet
EndChar

StartChar: exclam
Encoding: 1 33 4
Width: 793
Flags: W
LayerCount: 2
Fore
SplineSet
520 1016 m 2,0,1
 520 956 520 956 492 760 c 2,2,-1
 436 381 l 1,3,-1
 307 381 l 1,4,-1
 252 760 l 2,5,6
 223 956 223 956 223 1016 c 2,7,-1
 223 1284 l 1,8,-1
 520 1284 l 1,9,-1
 520 1016 l 2,0,1
510 2 m 1,10,-1
 233 2 l 1,11,-1
 233 227 l 1,12,-1
 510 227 l 1,13,-1
 510 2 l 1,10,-1
EndSplineSet
EndChar

StartChar: quotedbl
Encoding: 2 34 5
Width: 954
Flags: W
LayerCount: 2
Fore
SplineSet
821 1184 m 2,0,1
 821 1118 821 1118 774 961 c 1,2,-1
 629 961 l 1,3,4
 582 1118 582 1118 582 1184 c 2,5,-1
 582 1382 l 1,6,-1
 821 1382 l 1,7,-1
 821 1184 l 2,0,1
385 1184 m 2,8,9
 385 1133 385 1133 340 961 c 1,10,-1
 193 961 l 1,11,12
 145 1118 145 1118 145 1184 c 2,13,-1
 145 1382 l 1,14,-1
 385 1382 l 1,15,-1
 385 1184 l 2,8,9
EndSplineSet
EndChar

StartChar: numbersign
Encoding: 3 35 6
Width: 1520
Flags: W
LayerCount: 2
Fore
SplineSet
1370 330 m 1,0,-1
 1038 330 l 1,1,-1
 954 2 l 1,2,-1
 797 2 l 1,3,-1
 879 330 l 1,4,-1
 500 330 l 1,5,-1
 418 2 l 1,6,-1
 258 2 l 1,7,-1
 340 330 l 1,8,-1
 150 330 l 1,9,-1
 150 455 l 1,10,-1
 373 455 l 1,11,-1
 451 772 l 1,12,-1
 150 772 l 1,13,-1
 150 895 l 1,14,-1
 481 895 l 1,15,-1
 565 1223 l 1,16,-1
 723 1223 l 1,17,-1
 641 895 l 1,18,-1
 1022 895 l 1,19,-1
 1102 1223 l 1,20,-1
 1262 1223 l 1,21,-1
 1180 895 l 1,22,-1
 1370 895 l 1,23,-1
 1370 772 l 1,24,-1
 1147 772 l 1,25,-1
 1069 455 l 1,26,-1
 1370 455 l 1,27,-1
 1370 330 l 1,0,-1
989 772 m 1,28,-1
 608 772 l 1,29,-1
 530 455 l 1,30,-1
 911 455 l 1,31,-1
 989 772 l 1,28,-1
EndSplineSet
EndChar

StartChar: dollar
Encoding: 4 36 7
Width: 1210
Flags: W
LayerCount: 2
Fore
SplineSet
1077 336 m 0,0,1
 1077 4 1077 4 649 -20 c 1,2,-1
 649 -205 l 1,3,-1
 582 -205 l 1,4,-1
 582 -20 l 1,5,6
 170 -10 170 -10 170 285 c 0,7,8
 170 328 170 328 182 379 c 1,9,-1
 395 379 l 1,10,11
 387 342 387 342 387 309 c 0,12,13
 387 137 387 137 582 121 c 1,14,-1
 582 532 l 1,15,16
 406 623 406 623 330 680 c 1,17,18
 186 791 186 791 186 918 c 0,19,20
 186 1075 186 1075 309 1159 c 1,21,22
 412 1227 412 1227 582 1235 c 1,23,-1
 582 1409 l 1,24,-1
 649 1409 l 1,25,-1
 649 1235 l 1,26,27
 786 1229 786 1229 895 1180 c 1,28,29
 1036 1114 1036 1114 1036 995 c 0,30,31
 1036 961 1036 961 1032 922 c 1,32,-1
 815 922 l 1,33,34
 819 944 819 944 819 965 c 0,35,36
 819 1081 819 1081 649 1094 c 1,37,-1
 649 729 l 1,38,39
 1077 526 1077 526 1077 336 c 0,0,1
582 754 m 1,40,-1
 582 1094 l 1,41,42
 414 1059 414 1059 414 932 c 0,43,44
 414 854 414 854 582 754 c 1,40,-1
848 301 m 0,45,46
 850 379 850 379 774 432 c 0,47,48
 760 442 760 442 649 510 c 1,49,-1
 649 121 l 1,50,51
 846 154 846 154 848 301 c 0,45,46
EndSplineSet
EndChar

StartChar: percent
Encoding: 5 37 8
Width: 1841
Flags: W
LayerCount: 2
Fore
SplineSet
1698 295 m 0,0,1
 1698 131 1698 131 1627 54 c 128,-1,2
 1556 -23 1556 -23 1395 -23 c 0,3,4
 1233 -23 1233 -23 1162.5 54 c 128,-1,5
 1092 131 1092 131 1092 295 c 0,6,7
 1092 627 1092 627 1395 627 c 256,8,9
 1698 627 1698 627 1698 295 c 0,0,1
1520 1241 m 1,10,-1
 500 -23 l 1,11,-1
 334 -23 l 1,12,-1
 1352 1241 l 1,13,-1
 1520 1241 l 1,10,-1
760 909 m 0,14,15
 760 745 760 745 689 668.5 c 128,-1,16
 618 592 618 592 457 592 c 0,17,18
 295 592 295 592 224.5 668.5 c 128,-1,19
 154 745 154 745 154 909 c 0,20,21
 154 1241 154 1241 457 1241 c 256,22,23
 760 1241 760 1241 760 909 c 0,14,15
1509 211 m 2,24,-1
 1509 387 l 2,25,26
 1509 545 1509 545 1395 545 c 0,27,28
 1280 545 1280 545 1280 387 c 2,29,-1
 1280 201 l 2,30,31
 1280 57 1280 57 1393 57 c 0,32,33
 1509 57 1509 57 1509 211 c 2,24,-1
573 825 m 2,34,-1
 573 1001 l 2,35,36
 573 1161 573 1161 457 1161 c 0,37,38
 340 1161 340 1161 340 1001 c 2,39,-1
 340 825 l 2,40,41
 340 672 340 672 455 672 c 0,42,43
 573 672 573 672 573 825 c 2,34,-1
EndSplineSet
EndChar

StartChar: ampersand
Encoding: 6 38 9
Width: 1642
Flags: W
LayerCount: 2
Fore
SplineSet
1530 244 m 0,0,1
 1530 113 1530 113 1425 41 c 1,2,3
 1335 -23 1335 -23 1198 -23 c 0,4,5
 1042 -23 1042 -23 915 125 c 1,6,7
 741 -23 741 -23 526 -23 c 0,8,9
 371 -23 371 -23 256 74 c 1,10,11
 135 174 135 174 137 328 c 0,12,13
 139 498 139 498 274 647 c 0,14,15
 340 719 340 719 541 868 c 1,16,17
 516 915 516 915 493.5 1000 c 128,-1,18
 471 1085 471 1085 471 1137 c 0,19,20
 471 1278 471 1278 596 1348 c 0,21,22
 694 1403 694 1403 848 1403 c 0,23,24
 961 1403 961 1403 1042 1360 c 1,25,26
 1145 1307 1145 1307 1145 1204 c 0,27,28
 1145 1106 1145 1106 1026 995 c 0,29,30
 928 903 928 903 821 864 c 1,31,32
 850 811 850 811 915 639 c 0,33,34
 977 477 977 477 1014 418 c 1,35,36
 1159 590 1159 590 1257 807 c 1,37,-1
 1399 801 l 1,38,39
 1268 502 1268 502 1094 285 c 1,40,41
 1171 150 1171 150 1264 150 c 0,42,43
 1319 150 1319 150 1355 187.5 c 128,-1,44
 1391 225 1391 225 1391 281 c 0,45,46
 1391 326 1391 326 1370 383 c 1,47,-1
 1501 379 l 1,48,49
 1530 301 1530 301 1530 244 c 0,0,1
995 1200 m 0,50,51
 995 1253 995 1253 951 1280 c 128,-1,52
 907 1307 907 1307 850 1307 c 0,53,54
 795 1307 795 1307 754 1273 c 128,-1,55
 713 1239 713 1239 713 1186 c 0,56,57
 713 1057 713 1057 762 963 c 1,58,59
 840 991 840 991 911 1055 c 0,60,61
 995 1130 995 1130 995 1200 c 0,50,51
825 242 m 1,62,63
 778 322 778 322 715 489 c 0,64,65
 641 688 641 688 612 741 c 1,66,67
 410 573 410 573 410 422 c 0,68,69
 410 334 410 334 473 256 c 0,70,71
 541 172 541 172 625 172 c 0,72,73
 733 172 733 172 825 242 c 1,62,63
EndSplineSet
EndChar

StartChar: quotesingle
Encoding: 7 39 10
Width: 517
Flags: W
LayerCount: 2
Fore
SplineSet
378 1184 m 2,0,1
 378 1118 378 1118 331 961 c 1,2,-1
 186 961 l 1,3,4
 139 1118 139 1118 139 1184 c 2,5,-1
 139 1382 l 1,6,-1
 378 1382 l 1,7,-1
 378 1184 l 2,0,1
EndSplineSet
EndChar

StartChar: parenleft
Encoding: 8 40 11
Width: 946
Flags: W
LayerCount: 2
Fore
SplineSet
936 -289 m 1,0,-1
 838 -289 l 1,1,2
 618 -147 618 -147 459 104 c 1,3,4
 291 373 291 373 291 618 c 0,5,6
 291 864 291 864 461 1133 c 1,7,8
 618 1386 618 1386 838 1528 c 1,9,-1
 936 1528 l 1,10,11
 768 1356 768 1356 678 1106 c 0,12,13
 596 877 596 877 596 618 c 0,14,15
 596 362 596 362 678 131 c 1,16,17
 768 -117 768 -117 936 -289 c 1,0,-1
EndSplineSet
EndChar

StartChar: parenright
Encoding: 9 41 12
Width: 946
Flags: W
LayerCount: 2
Fore
SplineSet
657 618 m 0,0,1
 657 373 657 373 487 104 c 1,2,3
 330 -147 330 -147 109 -289 c 1,4,-1
 10 -289 l 1,5,6
 180 -119 180 -119 268 131 c 1,7,8
 352 362 352 362 352 618 c 0,9,10
 352 877 352 877 270 1108 c 1,11,12
 180 1356 180 1356 10 1528 c 1,13,-1
 109 1528 l 1,14,15
 330 1386 330 1386 489 1135 c 1,16,17
 657 866 657 866 657 618 c 0,0,1
EndSplineSet
EndChar

StartChar: asterisk
Encoding: 10 42 13
Width: 1020
Flags: W
LayerCount: 2
Fore
SplineSet
915 1135 m 1,0,-1
 831 1112 l 1,1,2
 760 1124 760 1124 711 1124 c 0,3,4
 651 1124 651 1124 537 1092 c 1,5,6
 590 1032 590 1032 651 987 c 0,7,8
 668 975 668 975 733 940 c 1,9,10
 778 918 778 918 815 877 c 1,11,-1
 684 801 l 1,12,-1
 633 860 l 1,13,14
 612 973 612 973 518 1079 c 1,15,16
 418 975 418 975 403 858 c 1,17,-1
 350 801 l 1,18,-1
 221 877 l 1,19,-1
 274 936 l 1,20,21
 403 985 403 985 500 1092 c 1,22,23
 385 1122 385 1122 326 1122 c 0,24,25
 291 1122 291 1122 207 1110 c 1,26,-1
 119 1133 l 1,27,-1
 168 1257 l 1,28,-1
 254 1235 l 1,29,30
 348 1151 348 1151 506 1110 c 1,31,32
 504 1194 504 1194 492.5 1233 c 128,-1,33
 481 1272 481 1272 436 1343 c 1,34,-1
 436 1415 l 1,35,-1
 598 1415 l 1,36,-1
 598 1343 l 1,37,38
 528 1243 528 1243 526 1110 c 1,39,40
 657 1145 657 1145 788 1239 c 1,41,-1
 866 1260 l 1,42,-1
 915 1135 l 1,0,-1
EndSplineSet
EndChar

StartChar: plus
Encoding: 11 43 14
Width: 1208
Flags: W
LayerCount: 2
Fore
SplineSet
1106 578 m 1,0,-1
 717 578 l 1,1,-1
 717 195 l 1,2,-1
 537 195 l 1,3,-1
 537 578 l 1,4,-1
 147 578 l 1,5,-1
 147 721 l 1,6,-1
 537 721 l 1,7,-1
 537 1104 l 1,8,-1
 717 1104 l 1,9,-1
 717 721 l 1,10,-1
 1106 721 l 1,11,-1
 1106 578 l 1,0,-1
EndSplineSet
EndChar

StartChar: hyphen
Encoding: 13 45 16
Width: 885
Flags: W
LayerCount: 2
Fore
SplineSet
809 539 m 1,0,-1
 164 539 l 1,1,-1
 164 725 l 1,2,-1
 809 725 l 1,3,-1
 809 539 l 1,0,-1
EndSplineSet
EndChar

StartChar: slash
Encoding: 15 47 18
Width: 862
Flags: W
LayerCount: 2
Fore
SplineSet
729 1239 m 1,0,-1
 268 -23 l 1,1,-1
 119 -23 l 1,2,-1
 580 1239 l 1,3,-1
 729 1239 l 1,0,-1
EndSplineSet
EndChar

StartChar: zero
Encoding: 16 48 19
Width: 1194
Flags: W
LayerCount: 2
Fore
SplineSet
1061 561 m 0,0,1
 1061 350 1061 350 1028 238 c 0,2,3
 975 55 975 55 829 4 c 0,4,5
 754 -23 754 -23 600 -23 c 0,6,7
 434 -23 434 -23 360 8 c 0,8,9
 221 66 221 66 172 238 c 1,10,11
 139 350 139 350 139 547 c 0,12,13
 139 897 139 897 199 1028 c 0,14,15
 295 1239 295 1239 600 1239 c 0,16,17
 901 1239 901 1239 999 1034 c 0,18,19
 1061 905 1061 905 1061 561 c 0,0,1
780 383 m 2,20,-1
 780 827 l 2,21,22
 780 1100 780 1100 600 1100 c 0,23,24
 481 1100 481 1100 442 995 c 0,25,26
 420 934 420 934 420 791 c 2,27,-1
 420 381 l 2,28,29
 420 117 420 117 600 117 c 256,30,31
 780 117 780 117 780 383 c 2,20,-1
EndSplineSet
EndChar

StartChar: one
Encoding: 17 49 20
Width: 1194
Flags: W
LayerCount: 2
Fore
SplineSet
840 2 m 1,0,-1
 571 2 l 1,1,-1
 571 895 l 1,2,3
 428 852 428 852 209 852 c 1,4,-1
 209 987 l 1,5,6
 543 1006 543 1006 662 1221 c 1,7,-1
 840 1221 l 1,8,-1
 840 2 l 1,0,-1
EndSplineSet
EndChar

StartChar: two
Encoding: 18 50 21
Width: 1194
Flags: W
LayerCount: 2
Fore
SplineSet
1040 877 m 0,0,1
 1040 674 1040 674 825 473 c 0,2,3
 690 348 690 348 434 195 c 1,4,-1
 1034 195 l 1,5,-1
 1034 4 l 1,6,-1
 158 4 l 1,7,-1
 158 152 l 1,8,9
 426 338 426 338 545 457 c 0,10,11
 760 674 760 674 760 874 c 0,12,13
 760 1100 760 1100 584 1100 c 0,14,15
 397 1100 397 1100 397 877 c 0,16,17
 397 807 397 807 418 694 c 1,18,-1
 176 696 l 1,19,20
 152 797 152 797 152 879 c 0,21,22
 152 1241 152 1241 594 1241 c 0,23,24
 788 1241 788 1241 905 1159 c 0,25,26
 1040 1065 1040 1065 1040 877 c 0,0,1
EndSplineSet
EndChar

StartChar: three
Encoding: 19 51 22
Width: 1194
Flags: W
LayerCount: 2
Fore
SplineSet
1026 389 m 0,0,1
 1026 182 1026 182 887 74 c 0,2,3
 760 -25 760 -25 547 -25 c 0,4,5
 383 -25 383 -25 272 43 c 0,6,7
 139 125 139 125 139 279 c 0,8,9
 139 340 139 340 160 426 c 1,10,-1
 399 434 l 1,11,12
 385 356 385 356 385 299 c 0,13,14
 385 117 385 117 553 117 c 0,15,16
 745 117 745 117 745 406 c 0,17,18
 745 516 745 516 696 590 c 0,19,20
 641 674 641 674 535 674 c 0,21,22
 469 674 469 674 389 625 c 1,23,-1
 293 713 l 1,24,-1
 725 1051 l 1,25,-1
 201 1051 l 1,26,-1
 201 1221 l 1,27,-1
 973 1221 l 1,28,-1
 973 1040 l 1,29,-1
 637 776 l 1,30,31
 813 760 813 760 915 664 c 0,32,33
 1026 561 1026 561 1026 389 c 0,0,1
EndSplineSet
EndChar

StartChar: four
Encoding: 20 52 23
Width: 1194
Flags: W
LayerCount: 2
Fore
SplineSet
1077 279 m 1,0,-1
 922 279 l 1,1,-1
 922 2 l 1,2,-1
 668 2 l 1,3,-1
 668 279 l 1,4,-1
 104 279 l 1,5,-1
 104 479 l 1,6,-1
 608 1221 l 1,7,-1
 922 1221 l 1,8,-1
 922 442 l 1,9,-1
 1077 442 l 1,10,-1
 1077 279 l 1,0,-1
668 442 m 1,11,-1
 668 999 l 1,12,-1
 283 442 l 1,13,-1
 668 442 l 1,11,-1
EndSplineSet
EndChar

StartChar: five
Encoding: 21 53 24
Width: 1194
Flags: W
LayerCount: 2
Fore
SplineSet
1065 434 m 0,0,1
 1065 211 1065 211 928 90 c 0,2,3
 799 -25 799 -25 571 -25 c 0,4,5
 406 -25 406 -25 291 39 c 0,6,7
 150 117 150 117 150 270 c 0,8,9
 150 342 150 342 182 424 c 1,10,-1
 416 430 l 1,11,12
 395 358 395 358 395 293 c 0,13,14
 395 117 395 117 573 117 c 0,15,16
 786 117 786 117 786 426 c 0,17,18
 786 682 786 682 592 682 c 0,19,20
 467 682 467 682 416 590 c 1,21,-1
 207 610 l 1,22,-1
 262 1221 l 1,23,-1
 981 1221 l 1,24,-1
 969 1051 l 1,25,-1
 446 1051 l 1,26,-1
 422 733 l 1,27,28
 557 825 557 825 690 825 c 0,29,30
 872 825 872 825 968.5 721.5 c 128,-1,31
 1065 618 1065 618 1065 434 c 0,0,1
EndSplineSet
EndChar

StartChar: six
Encoding: 22 54 25
Width: 1194
Flags: W
LayerCount: 2
Fore
SplineSet
1067 383 m 0,0,1
 1067 -23 1067 -23 612 -23 c 0,2,3
 330 -23 330 -23 227 121 c 0,4,5
 143 238 143 238 143 532 c 0,6,7
 143 905 143 905 211 1036 c 0,8,9
 315 1239 315 1239 651 1239 c 0,10,11
 797 1239 797 1239 899 1186 c 0,12,13
 1028 1120 1028 1120 1028 989 c 0,14,15
 1028 952 1028 952 1022 911 c 1,16,-1
 778 887 l 1,17,18
 782 922 782 922 782 952 c 0,19,20
 782 1106 782 1106 616 1106 c 0,21,22
 418 1106 418 1106 418 848 c 2,23,-1
 418 633 l 1,24,25
 535 758 535 758 698 758 c 0,26,27
 1067 758 1067 758 1067 383 c 0,0,1
793 387 m 0,28,29
 793 506 793 506 760 559 c 0,30,31
 717 627 717 627 604 627 c 0,32,33
 416 627 416 627 416 377 c 0,34,35
 416 117 416 117 604 117 c 0,36,37
 719 117 719 117 762 201 c 0,38,39
 793 262 793 262 793 387 c 0,28,29
EndSplineSet
EndChar

StartChar: seven
Encoding: 23 55 26
Width: 1194
Flags: W
LayerCount: 2
Fore
SplineSet
1047 1032 m 1,0,1
 854 786 854 786 784 549 c 1,2,3
 725 344 725 344 725 2 c 1,4,-1
 434 2 l 1,5,-1
 434 61 l 2,6,7
 434 356 434 356 539 594 c 1,8,9
 635 809 635 809 848 1042 c 1,10,-1
 176 1042 l 1,11,-1
 176 1221 l 1,12,-1
 1047 1221 l 1,13,-1
 1047 1032 l 1,0,1
EndSplineSet
EndChar

StartChar: eight
Encoding: 24 56 27
Width: 1194
Flags: W
LayerCount: 2
Fore
SplineSet
1059 319 m 0,0,1
 1059 137 1059 137 913 49 c 0,2,3
 795 -23 795 -23 600 -23 c 0,4,5
 410 -23 410 -23 289 51 c 0,6,7
 141 141 141 141 141 319 c 0,8,9
 141 569 141 569 457 641 c 1,10,11
 174 709 174 709 174 911 c 0,12,13
 174 1085 174 1085 307 1169 c 0,14,15
 416 1239 416 1239 600 1239 c 0,16,17
 1026 1239 1026 1239 1026 911 c 0,18,19
 1026 709 1026 709 743 641 c 1,20,21
 1059 569 1059 569 1059 319 c 0,0,1
764 893 m 0,22,23
 764 1102 764 1102 600 1102 c 256,24,25
 436 1102 436 1102 436 893 c 0,26,27
 436 793 436 793 467 748 c 1,28,29
 504 692 504 692 600 692 c 256,30,31
 696 692 696 692 733 748 c 1,32,33
 764 793 764 793 764 893 c 0,22,23
780 346 m 0,34,35
 780 559 780 559 600 559 c 256,36,37
 420 559 420 559 420 346 c 0,38,39
 420 233 420 233 453 180 c 0,40,41
 494 113 494 113 600 113 c 0,42,43
 780 113 780 113 780 346 c 0,34,35
EndSplineSet
EndChar

StartChar: nine
Encoding: 25 57 28
Width: 1194
Flags: W
LayerCount: 2
Fore
SplineSet
1057 684 m 0,0,1
 1057 313 1057 313 987 178 c 0,2,3
 883 -25 883 -25 549 -25 c 0,4,5
 401 -25 401 -25 301 27 c 1,6,7
 172 92 172 92 172 225 c 0,8,9
 172 262 172 262 178 303 c 1,10,-1
 422 328 l 1,11,12
 416 293 416 293 416 262 c 0,13,14
 416 109 416 109 584 109 c 0,15,16
 782 109 782 109 782 367 c 2,17,-1
 782 582 l 1,18,19
 666 455 666 455 502 455 c 0,20,21
 133 455 133 455 133 831 c 0,22,23
 133 1237 133 1237 588 1237 c 0,24,25
 872 1237 872 1237 973 1096 c 0,26,27
 1057 979 1057 979 1057 684 c 0,0,1
784 838 m 0,28,29
 784 1098 784 1098 596 1098 c 0,30,31
 479 1098 479 1098 436 1010 c 1,32,33
 408 948 408 948 408 817 c 0,34,35
 408 705 408 705 444 651 c 1,36,37
 489 588 489 588 596 588 c 0,38,39
 784 588 784 588 784 838 c 0,28,29
EndSplineSet
EndChar

StartChar: less
Encoding: 28 60 31
Width: 1432
Flags: W
LayerCount: 2
Fore
SplineSet
1278 88 m 1,0,-1
 154 475 l 1,1,-1
 154 621 l 1,2,-1
 1278 1008 l 1,3,-1
 1278 852 l 1,4,-1
 387 549 l 1,5,-1
 1278 246 l 1,6,-1
 1278 88 l 1,0,-1
EndSplineSet
EndChar

StartChar: greater
Encoding: 30 62 33
Width: 1452
Flags: W
LayerCount: 2
Fore
SplineSet
1309 475 m 1,0,-1
 184 88 l 1,1,-1
 184 246 l 1,2,-1
 1075 549 l 1,3,-1
 184 852 l 1,4,-1
 184 1008 l 1,5,-1
 1309 621 l 1,6,-1
 1309 475 l 1,0,-1
EndSplineSet
EndChar

StartChar: question
Encoding: 31 63 34
Width: 1090
Flags: W
LayerCount: 2
Fore
SplineSet
946 1100 m 0,0,1
 948 983 948 983 924 874 c 1,2,3
 891 737 891 737 825 672 c 1,4,5
 748 594 748 594 580 573 c 1,6,-1
 580 360 l 1,7,-1
 408 360 l 1,8,-1
 408 705 l 1,9,10
 571 705 571 705 571 705 c 2,11,12
 604 705 604 705 645 780 c 0,13,14
 678 840 678 840 690 887 c 0,15,16
 711 965 711 965 698 1100 c 1,17,18
 692 1176 692 1176 670 1210 c 0,19,20
 633 1270 633 1270 537 1270 c 0,21,22
 385 1270 385 1270 393 1092 c 1,23,-1
 162 1092 l 1,24,25
 172 1395 172 1395 530 1386 c 0,26,27
 940 1376 940 1376 946 1100 c 0,0,1
618 2 m 1,28,-1
 365 2 l 1,29,-1
 365 227 l 1,30,-1
 618 227 l 1,31,-1
 618 2 l 1,28,-1
EndSplineSet
EndChar

StartChar: at
Encoding: 32 64 35
Width: 1559
Flags: W
LayerCount: 2
Fore
SplineSet
1459 737 m 0,0,1
 1459 555 1459 555 1360 414 c 1,2,3
 1252 254 1252 254 1076 254 c 0,4,5
 936 254 936 254 912 397 c 1,6,7
 820 254 820 254 676 254 c 0,8,9
 557 254 557 254 488 350 c 1,10,11
 424 436 424 436 424 559 c 0,12,13
 424 735 424 735 527 877 c 1,14,15
 641 1032 641 1032 811 1032 c 0,16,17
 930 1032 930 1032 1004 907 c 1,18,-1
 1024 1012 l 1,19,-1
 1151 1012 l 1,20,-1
 1082 651 l 2,21,22
 1043 451 1043 451 1043 418 c 0,23,24
 1043 350 1043 350 1098 350 c 0,25,26
 1227 350 1227 350 1299 485 c 0,27,28
 1358 594 1358 594 1358 735 c 0,29,30
 1358 948 1358 948 1209 1077 c 1,31,32
 1067 1202 1067 1202 852 1202 c 0,33,34
 582 1202 582 1202 421.5 1036 c 128,-1,35
 261 870 261 870 261 600 c 0,36,37
 261 336 261 336 422 190 c 0,38,39
 578 49 578 49 844 49 c 0,40,41
 1106 49 1106 49 1330 156 c 1,42,-1
 1354 76 l 1,43,44
 1125 -47 1125 -47 846 -47 c 0,45,46
 537 -47 537 -47 353 121 c 1,47,48
 160 295 160 295 160 600 c 256,49,50
 160 905 160 905 352.5 1101.5 c 128,-1,51
 545 1298 545 1298 850 1298 c 0,52,53
 1102 1298 1102 1298 1276 1145 c 1,54,55
 1459 987 1459 987 1459 737 c 0,0,1
983 813 m 0,56,57
 983 831 983 831 959 864 c 1,58,59
 902 938 902 938 807 938 c 0,60,61
 682 938 682 938 615 805 c 0,62,63
 562 700 562 700 562 561 c 0,64,65
 562 350 562 350 703 350 c 0,66,67
 783 350 783 350 842.5 402.5 c 128,-1,68
 902 455 902 455 928 532 c 0,69,70
 936 557 936 557 961 680 c 0,71,72
 983 793 983 793 983 813 c 0,56,57
EndSplineSet
EndChar

StartChar: A
Encoding: 33 65 36
Width: 1079
Flags: W
LayerCount: 2
Fore
SplineSet
1032 184 m 1,0,-1
 829 184 l 1,1,-1
 791 348 l 1,2,-1
 489 348 l 1,3,-1
 451 184 l 1,4,-1
 248 184 l 1,5,-1
 504 1040 l 1,6,-1
 770 1040 l 1,7,-1
 1032 184 l 1,0,-1
774 467 m 1,8,-1
 637 920 l 1,9,-1
 504 467 l 1,10,-1
 774 467 l 1,8,-1
EndSplineSet
EndChar

StartChar: B
Encoding: 34 66 37
Width: 1051
Flags: W
LayerCount: 2
Fore
SplineSet
991 403 m 0,0,1
 991 184 991 184 682 184 c 2,2,-1
 301 184 l 1,3,-1
 301 1040 l 1,4,-1
 627 1040 l 2,5,6
 760 1040 760 1040 848 989 c 0,7,8
 954 928 954 928 954 805 c 0,9,10
 954 668 954 668 729 618 c 1,11,12
 991 569 991 569 991 403 c 0,0,1
758 788 m 0,13,14
 758 936 758 936 614 936 c 2,15,-1
 496 936 l 1,16,-1
 496 668 l 1,17,-1
 637 668 l 2,18,19
 758 668 758 668 758 788 c 0,13,14
782 422 m 0,20,21
 782 569 782 569 639 569 c 2,22,-1
 496 569 l 1,23,-1
 496 291 l 1,24,-1
 647 291 l 2,25,26
 782 291 782 291 782 422 c 0,20,21
EndSplineSet
EndChar

StartChar: C
Encoding: 35 67 38
Width: 1090
Flags: W
LayerCount: 2
Fore
SplineSet
1012 383 m 1,0,1
 1010 268 1010 268 887 211 c 0,2,3
 791 166 791 166 662 166 c 0,4,5
 461 166 461 166 377 256 c 128,-1,6
 293 346 293 346 293 549 c 0,7,8
 293 801 293 801 354 907 c 0,9,10
 438 1051 438 1051 674 1051 c 0,11,12
 774 1051 774 1051 856 1020 c 0,13,14
 967 979 967 979 983 897 c 0,15,16
 987 877 987 877 971 801 c 1,17,-1
 784 799 l 1,18,19
 793 860 793 860 791 872 c 0,20,21
 784 924 784 924 743 938 c 0,22,23
 719 946 719 946 657 946 c 0,24,25
 502 946 502 946 502 684 c 2,26,-1
 502 506 l 2,27,28
 502 399 502 399 524 346 c 1,29,30
 561 270 561 270 655 270 c 0,31,32
 825 270 825 270 817 391 c 1,33,34
 823 418 823 418 827 473 c 1,35,-1
 1010 473 l 1,36,37
 1012 461 1012 461 1012 383 c 1,0,1
EndSplineSet
EndChar

StartChar: D
Encoding: 36 68 39
Width: 1061
Flags: W
LayerCount: 2
Fore
SplineSet
987 590 m 0,0,1
 987 389 987 389 911 293 c 1,2,3
 827 184 827 184 633 184 c 2,4,-1
 297 184 l 1,5,-1
 297 1040 l 1,6,-1
 618 1040 l 2,7,8
 987 1040 987 1040 987 590 c 0,0,1
778 553 m 0,9,10
 778 848 778 848 702 905 c 0,11,12
 662 936 662 936 600 936 c 2,13,-1
 492 936 l 1,14,-1
 492 291 l 1,15,-1
 618 291 l 2,16,17
 778 291 778 291 778 553 c 0,9,10
EndSplineSet
EndChar

StartChar: E
Encoding: 37 69 40
Width: 995
Flags: W
LayerCount: 2
Fore
SplineSet
918 184 m 1,0,-1
 301 184 l 1,1,-1
 301 1040 l 1,2,-1
 874 1040 l 1,3,-1
 874 924 l 1,4,-1
 494 924 l 1,5,-1
 494 678 l 1,6,-1
 819 678 l 1,7,-1
 819 567 l 1,8,-1
 494 567 l 1,9,-1
 494 299 l 1,10,-1
 918 299 l 1,11,-1
 918 184 l 1,0,-1
EndSplineSet
EndChar

StartChar: F
Encoding: 38 70 41
Width: 940
Flags: W
LayerCount: 2
Fore
SplineSet
862 926 m 1,0,-1
 471 926 l 1,1,-1
 471 659 l 1,2,-1
 791 659 l 1,3,-1
 791 549 l 1,4,-1
 471 549 l 1,5,-1
 471 184 l 1,6,-1
 276 184 l 1,7,-1
 276 1040 l 1,8,-1
 862 1040 l 1,9,-1
 862 926 l 1,0,-1
EndSplineSet
EndChar

StartChar: G
Encoding: 39 71 42
Width: 971
Flags: W
LayerCount: 2
Fore
SplineSet
960 184 m 1,0,-1
 768 184 l 1,1,-1
 768 283 l 1,2,3
 682 170 682 170 538 170 c 0,4,5
 465 170 465 170 397 209 c 0,6,7
 248 293 248 293 248 551 c 0,8,9
 248 788 248 788 311 899 c 1,10,11
 393 1051 393 1051 610 1051 c 0,12,13
 735 1051 735 1051 823 1004 c 0,14,15
 934 946 934 946 934 834 c 2,16,-1
 934 788 l 1,17,-1
 739 784 l 1,18,19
 743 825 743 825 741 831 c 0,20,21
 719 946 719 946 608 946 c 0,22,23
 506 946 506 946 473 817 c 1,24,25
 454 752 454 752 454 608 c 0,26,27
 454 473 454 473 477 399 c 1,28,29
 516 281 516 281 620 281 c 0,30,31
 768 281 768 281 768 489 c 1,32,-1
 620 489 l 1,33,-1
 620 600 l 1,34,-1
 960 600 l 1,35,-1
 960 184 l 1,0,-1
EndSplineSet
EndChar

StartChar: H
Encoding: 40 72 43
Width: 1038
Flags: W
LayerCount: 2
Fore
SplineSet
954 184 m 1,0,-1
 760 184 l 1,1,-1
 760 596 l 1,2,-1
 485 596 l 1,3,-1
 485 184 l 1,4,-1
 291 184 l 1,5,-1
 291 1040 l 1,6,-1
 485 1040 l 1,7,-1
 485 705 l 1,8,-1
 760 705 l 1,9,-1
 760 1040 l 1,10,-1
 954 1040 l 1,11,-1
 954 184 l 1,0,-1
EndSplineSet
EndChar

StartChar: I
Encoding: 41 73 44
Width: 545
Flags: W
LayerCount: 2
Fore
SplineSet
428 184 m 1,0,-1
 248 184 l 1,1,-1
 248 1040 l 1,2,-1
 428 1040 l 1,3,-1
 428 184 l 1,0,-1
EndSplineSet
EndChar

StartChar: J
Encoding: 42 74 45
Width: 901
Flags: W
LayerCount: 2
Fore
SplineSet
819 367 m 2,0,1
 819 162 819 162 532 162 c 0,2,3
 414 162 414 162 336 209 c 0,4,5
 242 266 242 266 242 379 c 0,6,7
 242 434 242 434 270 524 c 1,8,-1
 438 526 l 1,9,10
 428 465 428 465 428 412 c 0,11,12
 428 281 428 281 532 281 c 0,13,14
 625 281 625 281 625 377 c 2,15,-1
 625 1034 l 1,16,-1
 819 1034 l 1,17,-1
 819 367 l 2,0,1
EndSplineSet
EndChar

StartChar: K
Encoding: 43 75 46
Width: 1016
Flags: W
LayerCount: 2
Fore
SplineSet
975 184 m 1,0,-1
 752 184 l 1,1,-1
 418 629 l 1,2,-1
 418 614 l 1,3,-1
 737 1040 l 1,4,-1
 963 1040 l 1,5,-1
 616 631 l 1,6,-1
 975 184 l 1,0,-1
461 184 m 1,7,-1
 274 184 l 1,8,-1
 274 1040 l 1,9,-1
 461 1040 l 1,10,-1
 461 184 l 1,7,-1
EndSplineSet
EndChar

StartChar: L
Encoding: 44 76 47
Width: 899
Flags: W
LayerCount: 2
Fore
SplineSet
821 184 m 1,0,-1
 268 184 l 1,1,-1
 268 1040 l 1,2,-1
 463 1040 l 1,3,-1
 463 299 l 1,4,-1
 821 299 l 1,5,-1
 821 184 l 1,0,-1
EndSplineSet
EndChar

StartChar: M
Encoding: 45 77 48
Width: 1397
Flags: W
LayerCount: 2
Fore
SplineSet
1307 184 m 1,0,-1
 1120 184 l 1,1,-1
 1120 856 l 1,2,-1
 891 434 l 1,3,-1
 760 434 l 1,4,-1
 539 856 l 1,5,-1
 539 184 l 1,6,-1
 352 184 l 1,7,-1
 352 1040 l 1,8,-1
 594 1040 l 1,9,-1
 827 614 l 1,10,-1
 1065 1040 l 1,11,-1
 1307 1040 l 1,12,-1
 1307 184 l 1,0,-1
EndSplineSet
EndChar

StartChar: N
Encoding: 46 78 49
Width: 1047
Flags: W
LayerCount: 2
Fore
SplineSet
956 184 m 1,0,-1
 793 184 l 1,1,-1
 471 774 l 1,2,-1
 471 184 l 1,3,-1
 291 184 l 1,4,-1
 291 1040 l 1,5,-1
 477 1040 l 1,6,-1
 776 485 l 1,7,-1
 776 1040 l 1,8,-1
 956 1040 l 1,9,-1
 956 184 l 1,0,-1
EndSplineSet
EndChar

StartChar: O
Encoding: 47 79 50
Width: 1104
Flags: W
LayerCount: 2
Fore
SplineSet
1008 578 m 0,0,1
 1008 365 1008 365 936 272 c 1,2,3
 856 166 856 166 649 166 c 256,4,5
 442 166 442 166 362 272 c 0,6,7
 291 365 291 365 291 578 c 0,8,9
 291 803 291 803 356 911 c 0,10,11
 440 1051 440 1051 649 1051 c 256,12,13
 858 1051 858 1051 942 911 c 1,14,15
 1008 803 1008 803 1008 578 c 0,0,1
809 653 m 0,16,17
 809 946 809 946 649 946 c 256,18,19
 489 946 489 946 489 653 c 0,20,21
 489 469 489 469 500 416 c 0,22,23
 530 270 530 270 649 270 c 256,24,25
 768 270 768 270 799 416 c 1,26,27
 809 469 809 469 809 653 c 0,16,17
EndSplineSet
EndChar

StartChar: P
Encoding: 48 80 51
Width: 1063
Flags: W
LayerCount: 2
Fore
SplineSet
987 741 m 0,0,1
 987 487 987 487 647 487 c 0,2,3
 561 487 561 487 489 496 c 1,4,-1
 489 184 l 1,5,-1
 295 184 l 1,6,-1
 295 1040 l 1,7,-1
 657 1040 l 2,8,9
 987 1040 987 1040 987 741 c 0,0,1
778 745 m 0,10,11
 778 848 778 848 733 892 c 128,-1,12
 688 936 688 936 586 936 c 2,13,-1
 489 936 l 1,14,-1
 489 592 l 1,15,-1
 582 592 l 2,16,17
 778 592 778 592 778 745 c 0,10,11
EndSplineSet
EndChar

StartChar: Q
Encoding: 49 81 52
Width: 1098
Flags: W
LayerCount: 2
Fore
SplineSet
1014 524 m 0,0,1
 1014 356 1014 356 967 266 c 0,2,3
 907 152 907 152 758 123 c 1,4,5
 840 53 840 53 1001 39 c 1,6,-1
 928 -76 l 1,7,8
 692 -55 692 -55 588 119 c 1,9,10
 418 131 418 131 350 248 c 1,11,12
 297 342 297 342 297 524 c 0,13,14
 297 748 297 748 362 856 c 1,15,16
 449 995 449 995 655 995 c 0,17,18
 862 995 862 995 948 856 c 0,19,20
 1014 748 1014 748 1014 524 c 0,0,1
807 600 m 0,21,22
 807 727 807 727 786 786 c 1,23,24
 752 893 752 893 655 893 c 0,25,26
 502 893 502 893 502 602 c 0,27,28
 502 553 502 553 502 553 c 1,29,30
 500 479 500 479 500 494 c 1,31,32
 500 219 500 219 655 219 c 0,33,34
 733 219 733 219 772 276 c 0,35,36
 807 326 807 326 807 600 c 0,21,22
EndSplineSet
EndChar

StartChar: R
Encoding: 50 82 53
Width: 1061
Flags: W
LayerCount: 2
Fore
SplineSet
981 184 m 1,0,-1
 782 184 l 1,1,-1
 766 334 l 1,2,3
 748 479 748 479 670 514 c 0,4,5
 635 530 635 530 489 530 c 1,6,-1
 489 184 l 1,7,-1
 297 184 l 1,8,-1
 297 1040 l 1,9,-1
 684 1040 l 2,10,11
 813 1040 813 1040 891 983 c 0,12,13
 979 918 979 918 979 795 c 0,14,15
 979 623 979 623 707 569 c 1,16,17
 848 549 848 549 899 500 c 1,18,19
 934 463 934 463 946 375 c 0,20,21
 963 244 963 244 981 184 c 1,0,-1
774 768 m 0,22,23
 774 936 774 936 623 936 c 2,24,-1
 489 936 l 1,25,-1
 489 633 l 1,26,-1
 625 633 l 2,27,28
 774 633 774 633 774 768 c 0,22,23
EndSplineSet
EndChar

StartChar: S
Encoding: 51 83 54
Width: 1040
Flags: W
LayerCount: 2
Fore
SplineSet
963 418 m 0,0,1
 963 283 963 283 850 217 c 1,2,3
 760 166 760 166 612 166 c 0,4,5
 485 166 485 166 401 215 c 1,6,7
 297 274 297 274 297 393 c 0,8,9
 297 426 297 426 307 467 c 1,10,-1
 479 473 l 1,11,12
 475 440 475 440 475 412 c 0,13,14
 475 266 475 266 625 266 c 0,15,16
 768 266 768 266 768 393 c 0,17,18
 768 477 768 477 647 537 c 1,19,20
 571 571 571 571 422 639 c 1,21,22
 301 711 301 711 301 815 c 0,23,24
 301 938 301 938 410 999 c 1,25,26
 498 1051 498 1051 629 1051 c 0,27,28
 733 1051 733 1051 817 1006 c 1,29,30
 922 952 922 952 922 858 c 0,31,32
 922 823 922 823 913 784 c 1,33,-1
 739 782 l 1,34,35
 741 801 741 801 741 817 c 0,36,37
 741 950 741 950 612 950 c 0,38,39
 563 950 563 950 526 922.5 c 128,-1,40
 489 895 489 895 489 846 c 0,41,42
 489 776 489 776 633 700 c 1,43,44
 735 653 735 653 840 606 c 1,45,46
 963 530 963 530 963 418 c 0,0,1
EndSplineSet
EndChar

StartChar: T
Encoding: 52 84 55
Width: 1028
Flags: W
LayerCount: 2
Fore
SplineSet
950 924 m 1,0,-1
 711 924 l 1,1,-1
 711 184 l 1,2,-1
 516 184 l 1,3,-1
 516 924 l 1,4,-1
 276 924 l 1,5,-1
 276 1040 l 1,6,-1
 950 1040 l 1,7,-1
 950 924 l 1,0,-1
EndSplineSet
EndChar

StartChar: U
Encoding: 53 85 56
Width: 1036
Flags: W
LayerCount: 2
Fore
SplineSet
954 395 m 2,0,1
 954 162 954 162 623 162 c 0,2,3
 291 162 291 162 291 395 c 2,4,-1
 291 1034 l 1,5,-1
 485 1034 l 1,6,-1
 485 399 l 2,7,8
 485 266 485 266 623 266 c 0,9,10
 760 266 760 266 760 399 c 2,11,-1
 760 1034 l 1,12,-1
 954 1034 l 1,13,-1
 954 395 l 2,0,1
EndSplineSet
EndChar

StartChar: V
Encoding: 54 86 57
Width: 1020
Flags: W
LayerCount: 2
Fore
SplineSet
1000 1040 m 1,0,-1
 758 184 l 1,1,-1
 500 184 l 1,2,-1
 252 1040 l 1,3,-1
 457 1040 l 1,4,-1
 629 336 l 1,5,-1
 797 1040 l 1,6,-1
 1000 1040 l 1,0,-1
EndSplineSet
EndChar

StartChar: W
Encoding: 55 87 58
Width: 1479
Flags: W
LayerCount: 2
Fore
SplineSet
1415 1040 m 1,0,-1
 1227 184 l 1,1,-1
 1006 184 l 1,2,-1
 889 725 l 1,3,-1
 770 184 l 1,4,-1
 547 184 l 1,5,-1
 344 1040 l 1,6,-1
 535 1040 l 1,7,-1
 672 375 l 1,8,-1
 813 940 l 1,9,-1
 977 940 l 1,10,-1
 1106 371 l 1,11,-1
 1245 1040 l 1,12,-1
 1415 1040 l 1,0,-1
EndSplineSet
EndChar

StartChar: X
Encoding: 56 88 59
Width: 1055
Flags: W
LayerCount: 2
Fore
SplineSet
981 184 m 1,0,-1
 772 184 l 1,1,-1
 604 528 l 1,2,-1
 430 184 l 1,3,-1
 244 184 l 1,4,-1
 508 653 l 1,5,-1
 285 1040 l 1,6,-1
 492 1040 l 1,7,-1
 623 756 l 1,8,-1
 756 1040 l 1,9,-1
 940 1040 l 1,10,-1
 715 653 l 1,11,-1
 981 184 l 1,0,-1
EndSplineSet
EndChar

StartChar: Y
Encoding: 57 89 60
Width: 1087
Flags: W
LayerCount: 2
Fore
SplineSet
1036 1040 m 1,0,-1
 745 520 l 1,1,-1
 745 184 l 1,2,-1
 553 184 l 1,3,-1
 553 524 l 1,4,-1
 266 1040 l 1,5,-1
 473 1040 l 1,6,-1
 659 664 l 1,7,-1
 852 1040 l 1,8,-1
 1036 1040 l 1,0,-1
EndSplineSet
EndChar

StartChar: Z
Encoding: 58 90 61
Width: 999
Flags: W
LayerCount: 2
Fore
SplineSet
922 184 m 1,0,-1
 268 184 l 1,1,-1
 268 346 l 1,2,-1
 707 924 l 1,3,-1
 295 924 l 1,4,-1
 295 1040 l 1,5,-1
 918 1040 l 1,6,-1
 918 905 l 1,7,-1
 459 299 l 1,8,-1
 922 299 l 1,9,-1
 922 184 l 1,0,-1
EndSplineSet
EndChar

StartChar: bracketleft
Encoding: 59 91 62
Width: 1055
Flags: W
LayerCount: 2
Fore
SplineSet
883 -287 m 1,0,-1
 242 -287 l 1,1,-1
 242 1479 l 1,2,-1
 883 1479 l 1,3,-1
 883 1346 l 1,4,-1
 506 1346 l 1,5,-1
 506 -154 l 1,6,-1
 883 -154 l 1,7,-1
 883 -287 l 1,0,-1
EndSplineSet
EndChar

StartChar: backslash
Encoding: 60 92 63
Width: 905
Flags: W
LayerCount: 2
Fore
SplineSet
758 -23 m 1,0,-1
 608 -23 l 1,1,-1
 147 1239 l 1,2,-1
 297 1239 l 1,3,-1
 758 -23 l 1,0,-1
EndSplineSet
EndChar

StartChar: bracketright
Encoding: 61 93 64
Width: 1081
Flags: W
LayerCount: 2
Fore
SplineSet
838 -291 m 1,0,-1
 197 -291 l 1,1,-1
 197 -158 l 1,2,-1
 573 -158 l 1,3,-1
 573 1343 l 1,4,-1
 197 1343 l 1,5,-1
 197 1475 l 1,6,-1
 838 1475 l 1,7,-1
 838 -291 l 1,0,-1
EndSplineSet
EndChar

StartChar: asciicircum
Encoding: 62 94 65
Width: 1073
Flags: W
LayerCount: 2
Fore
SplineSet
965 825 m 1,0,-1
 772 825 l 1,1,-1
 537 1280 l 1,2,-1
 301 825 l 1,3,-1
 109 825 l 1,4,-1
 444 1473 l 1,5,-1
 629 1473 l 1,6,-1
 965 825 l 1,0,-1
EndSplineSet
EndChar

StartChar: underscore
Encoding: 63 95 66
Width: 1139
Flags: W
LayerCount: 2
Fore
SplineSet
1153 -291 m 1,0,-1
 -14 -291 l 1,1,-1
 -14 -209 l 1,2,-1
 1153 -209 l 1,3,-1
 1153 -291 l 1,0,-1
EndSplineSet
EndChar

StartChar: grave
Encoding: 64 96 67
Width: 682
Flags: W
LayerCount: 2
Fore
SplineSet
539 1087 m 1,0,-1
 391 1087 l 1,1,-1
 139 1329 l 1,2,-1
 406 1329 l 1,3,-1
 539 1087 l 1,0,-1
EndSplineSet
EndChar

StartChar: a
Encoding: 65 97 68
Width: 1016
Flags: W
LayerCount: 2
Fore
SplineSet
977 246 m 1,0,-1
 801 246 l 1,1,-1
 770 387 l 1,2,-1
 510 387 l 1,3,-1
 477 246 l 1,4,-1
 303 246 l 1,5,-1
 524 979 l 1,6,-1
 752 979 l 1,7,-1
 977 246 l 1,0,-1
756 487 m 1,8,-1
 637 874 l 1,9,-1
 524 487 l 1,10,-1
 756 487 l 1,8,-1
EndSplineSet
EndChar

StartChar: b
Encoding: 66 98 69
Width: 993
Flags: W
LayerCount: 2
Fore
SplineSet
942 432 m 0,0,1
 942 246 942 246 676 246 c 2,2,-1
 350 246 l 1,3,-1
 350 979 l 1,4,-1
 629 979 l 2,5,6
 743 979 743 979 819 936 c 0,7,8
 911 883 911 883 911 776 c 0,9,10
 911 659 911 659 717 618 c 1,11,12
 942 575 942 575 942 432 c 0,0,1
741 764 m 0,13,14
 741 891 741 891 618 891 c 2,15,-1
 516 891 l 1,16,-1
 516 659 l 1,17,-1
 639 659 l 2,18,19
 741 659 741 659 741 764 c 0,13,14
764 449 m 0,20,21
 764 575 764 575 639 575 c 2,22,-1
 516 575 l 1,23,-1
 516 336 l 1,24,-1
 647 336 l 2,25,26
 764 336 764 336 764 449 c 0,20,21
EndSplineSet
EndChar

StartChar: c
Encoding: 67 99 70
Width: 1028
Flags: W
LayerCount: 2
Fore
SplineSet
961 416 m 1,0,1
 958 317 958 317 852 268 c 1,2,3
 772 229 772 229 659 229 c 0,4,5
 489 229 489 229 416.5 306 c 128,-1,6
 344 383 344 383 344 557 c 0,7,8
 344 774 344 774 397 864 c 0,9,10
 469 987 469 987 670 987 c 0,11,12
 758 987 758 987 827 961 c 0,13,14
 922 926 922 926 936 856 c 0,15,16
 940 838 940 838 926 772 c 1,17,-1
 766 772 l 1,18,19
 772 825 772 825 770 836 c 0,20,21
 766 879 766 879 731 891 c 1,22,23
 711 899 711 899 657 899 c 0,24,25
 522 899 522 899 522 674 c 2,26,-1
 522 520 l 2,27,28
 522 317 522 317 655 317 c 0,29,30
 801 317 801 317 795 422 c 1,31,32
 799 444 799 444 803 492 c 1,33,-1
 958 492 l 1,34,35
 961 481 961 481 961 416 c 1,0,1
EndSplineSet
EndChar

StartChar: d
Encoding: 68 100 71
Width: 1001
Flags: W
LayerCount: 2
Fore
SplineSet
938 592 m 0,0,1
 938 420 938 420 874 338 c 0,2,3
 801 246 801 246 635 246 c 2,4,-1
 346 246 l 1,5,-1
 346 979 l 1,6,-1
 623 979 l 2,7,8
 938 979 938 979 938 592 c 0,0,1
760 561 m 0,9,10
 760 813 760 813 694 862 c 1,11,12
 659 891 659 891 606 891 c 2,13,-1
 512 891 l 1,14,-1
 512 336 l 1,15,-1
 623 336 l 2,16,17
 760 336 760 336 760 561 c 0,9,10
EndSplineSet
EndChar

StartChar: e
Encoding: 69 101 72
Width: 940
Flags: W
LayerCount: 2
Fore
SplineSet
874 246 m 1,0,-1
 344 246 l 1,1,-1
 344 979 l 1,2,-1
 836 979 l 1,3,-1
 836 879 l 1,4,-1
 510 879 l 1,5,-1
 510 670 l 1,6,-1
 788 670 l 1,7,-1
 788 573 l 1,8,-1
 510 573 l 1,9,-1
 510 344 l 1,10,-1
 874 344 l 1,11,-1
 874 246 l 1,0,-1
EndSplineSet
EndChar

StartChar: f
Encoding: 70 102 73
Width: 887
Flags: W
LayerCount: 2
Fore
SplineSet
821 881 m 1,0,-1
 485 881 l 1,1,-1
 485 653 l 1,2,-1
 760 653 l 1,3,-1
 760 559 l 1,4,-1
 485 559 l 1,5,-1
 485 246 l 1,6,-1
 317 246 l 1,7,-1
 317 979 l 1,8,-1
 821 979 l 1,9,-1
 821 881 l 1,0,-1
EndSplineSet
EndChar

StartChar: g
Encoding: 71 103 74
Width: 913
Flags: W
LayerCount: 2
Fore
SplineSet
905 246 m 1,0,-1
 739 246 l 1,1,-1
 739 330 l 1,2,3
 666 233 666 233 543 233 c 0,4,5
 481 233 481 233 422 266 c 0,6,7
 295 338 295 338 295 559 c 0,8,9
 295 762 295 762 348 858 c 0,10,11
 420 987 420 987 606 987 c 0,12,13
 711 987 711 987 786 948 c 0,14,15
 883 899 883 899 883 803 c 2,16,-1
 883 762 l 1,17,-1
 715 760 l 1,18,19
 719 795 719 795 719 801 c 1,20,21
 698 899 698 899 604 899 c 0,22,23
 516 899 516 899 487 788 c 0,24,25
 473 731 473 731 473 608 c 0,26,27
 473 328 473 328 614 328 c 0,28,29
 739 328 739 328 739 508 c 1,30,-1
 614 508 l 1,31,-1
 614 602 l 1,32,-1
 905 602 l 1,33,-1
 905 246 l 1,0,-1
EndSplineSet
EndChar

StartChar: h
Encoding: 72 104 75
Width: 979
Flags: W
LayerCount: 2
Fore
SplineSet
907 246 m 1,0,-1
 741 246 l 1,1,-1
 741 598 l 1,2,-1
 504 598 l 1,3,-1
 504 246 l 1,4,-1
 338 246 l 1,5,-1
 338 979 l 1,6,-1
 504 979 l 1,7,-1
 504 692 l 1,8,-1
 741 692 l 1,9,-1
 741 979 l 1,10,-1
 907 979 l 1,11,-1
 907 246 l 1,0,-1
EndSplineSet
EndChar

StartChar: i
Encoding: 73 105 76
Width: 514
Flags: W
LayerCount: 2
Fore
SplineSet
416 246 m 1,0,-1
 260 246 l 1,1,-1
 260 979 l 1,2,-1
 416 979 l 1,3,-1
 416 246 l 1,0,-1
EndSplineSet
EndChar

StartChar: j
Encoding: 74 106 77
Width: 848
Flags: W
LayerCount: 2
Fore
SplineSet
778 399 m 2,0,1
 778 225 778 225 532 225 c 0,2,3
 430 225 430 225 362 264 c 1,4,5
 283 313 283 313 283 410 c 0,6,7
 283 459 283 459 307 535 c 1,8,-1
 453 537 l 1,9,10
 442 483 442 483 442 438 c 0,11,12
 442 326 442 326 532 326 c 0,13,14
 612 326 612 326 612 410 c 2,15,-1
 612 971 l 1,16,-1
 778 971 l 1,17,-1
 778 399 l 2,0,1
EndSplineSet
EndChar

StartChar: k
Encoding: 75 107 78
Width: 961
Flags: W
LayerCount: 2
Fore
SplineSet
924 246 m 1,0,-1
 733 246 l 1,1,-1
 449 627 l 1,2,-1
 449 614 l 1,3,-1
 721 979 l 1,4,-1
 915 979 l 1,5,-1
 618 629 l 1,6,-1
 924 246 l 1,0,-1
485 246 m 1,7,-1
 326 246 l 1,8,-1
 326 979 l 1,9,-1
 485 979 l 1,10,-1
 485 246 l 1,7,-1
EndSplineSet
EndChar

StartChar: l
Encoding: 76 108 79
Width: 848
Flags: W
LayerCount: 2
Fore
SplineSet
782 246 m 1,0,-1
 307 246 l 1,1,-1
 307 979 l 1,2,-1
 475 979 l 1,3,-1
 475 344 l 1,4,-1
 782 344 l 1,5,-1
 782 246 l 1,0,-1
EndSplineSet
EndChar

StartChar: m
Encoding: 77 109 80
Width: 1317
Flags: W
LayerCount: 2
Fore
SplineSet
1239 246 m 1,0,-1
 1079 246 l 1,1,-1
 1079 821 l 1,2,-1
 883 461 l 1,3,-1
 770 461 l 1,4,-1
 580 821 l 1,5,-1
 580 246 l 1,6,-1
 420 246 l 1,7,-1
 420 979 l 1,8,-1
 629 979 l 1,9,-1
 827 614 l 1,10,-1
 1030 979 l 1,11,-1
 1239 979 l 1,12,-1
 1239 246 l 1,0,-1
EndSplineSet
EndChar

StartChar: n
Encoding: 78 110 81
Width: 987
Flags: W
LayerCount: 2
Fore
SplineSet
907 246 m 1,0,-1
 768 246 l 1,1,-1
 494 752 l 1,2,-1
 494 246 l 1,3,-1
 340 246 l 1,4,-1
 340 979 l 1,5,-1
 500 979 l 1,6,-1
 754 504 l 1,7,-1
 754 979 l 1,8,-1
 907 979 l 1,9,-1
 907 246 l 1,0,-1
EndSplineSet
EndChar

StartChar: o
Encoding: 79 111 82
Width: 1038
Flags: W
LayerCount: 2
Fore
SplineSet
956 582 m 0,0,1
 956 399 956 399 895 322 c 1,2,3
 825 229 825 229 649 229 c 256,4,5
 473 229 473 229 403 322 c 1,6,7
 342 399 342 399 342 582 c 0,8,9
 342 774 342 774 397 866 c 0,10,11
 469 987 469 987 649 987 c 256,12,13
 829 987 829 987 901 866 c 0,14,15
 956 774 956 774 956 582 c 0,0,1
786 647 m 0,16,17
 786 899 786 899 649 899 c 256,18,19
 512 899 512 899 512 647 c 0,20,21
 512 489 512 489 522 444 c 0,22,23
 549 317 549 317 649 317 c 0,24,25
 752 317 752 317 776 444 c 1,26,27
 786 489 786 489 786 647 c 0,16,17
EndSplineSet
EndChar

StartChar: p
Encoding: 80 112 83
Width: 1001
Flags: W
LayerCount: 2
Fore
SplineSet
938 723 m 0,0,1
 938 506 938 506 647 506 c 0,2,3
 571 506 571 506 510 512 c 1,4,-1
 510 246 l 1,5,-1
 344 246 l 1,6,-1
 344 979 l 1,7,-1
 655 979 l 2,8,9
 938 979 938 979 938 723 c 0,0,1
760 727 m 0,10,11
 760 891 760 891 594 891 c 2,12,-1
 510 891 l 1,13,-1
 510 596 l 1,14,-1
 590 596 l 2,15,16
 760 596 760 596 760 727 c 0,10,11
EndSplineSet
EndChar

StartChar: q
Encoding: 81 113 84
Width: 932
Flags: W
LayerCount: 2
Fore
SplineSet
926 516 m 0,0,1
 926 371 926 371 887 295 c 0,2,3
 835 195 835 195 706 170 c 1,4,5
 776 111 776 111 915 98 c 1,6,-1
 852 0 l 1,7,8
 651 18 651 18 561 166 c 1,9,10
 416 178 416 178 356 279 c 1,11,12
 311 358 311 358 311 516 c 0,13,14
 311 707 311 707 369 799 c 1,15,16
 440 920 440 920 618 920 c 0,17,18
 797 920 797 920 868 799 c 1,19,20
 926 707 926 707 926 516 c 0,0,1
749 582 m 0,21,22
 749 829 749 829 618 829 c 256,23,24
 487 829 487 829 487 582 c 0,25,26
 487 539 487 539 487 539 c 1,27,28
 485 477 485 477 485 489 c 1,29,30
 485 252 485 252 618 252 c 0,31,32
 686 252 686 252 719 301 c 0,33,34
 749 344 749 344 749 582 c 0,21,22
EndSplineSet
EndChar

StartChar: r
Encoding: 82 114 85
Width: 999
Flags: W
LayerCount: 2
Fore
SplineSet
932 246 m 1,0,-1
 762 246 l 1,1,-1
 748 375 l 1,2,3
 733 498 733 498 666 528 c 1,4,5
 635 543 635 543 512 543 c 1,6,-1
 512 246 l 1,7,-1
 346 246 l 1,8,-1
 346 979 l 1,9,-1
 678 979 l 2,10,11
 788 979 788 979 854 930 c 0,12,13
 930 874 930 874 930 768 c 0,14,15
 930 623 930 623 696 575 c 1,16,17
 819 557 819 557 862 516 c 1,18,19
 893 485 893 485 901 408 c 1,20,21
 915 297 915 297 932 246 c 1,0,-1
756 745 m 0,22,23
 756 891 756 891 625 891 c 2,24,-1
 512 891 l 1,25,-1
 512 631 l 1,26,-1
 627 631 l 2,27,28
 756 631 756 631 756 745 c 0,22,23
EndSplineSet
EndChar

StartChar: s
Encoding: 83 115 86
Width: 981
Flags: W
LayerCount: 2
Fore
SplineSet
915 444 m 0,0,1
 915 229 915 229 616 229 c 0,2,3
 506 229 506 229 434 270 c 1,4,5
 344 324 344 324 344 424 c 0,6,7
 344 453 344 453 352 487 c 1,8,-1
 502 492 l 1,9,10
 496 465 496 465 496 440 c 0,11,12
 496 315 496 315 625 315 c 0,13,14
 748 315 748 315 748 424 c 0,15,16
 748 496 748 496 643 547 c 1,17,18
 580 575 580 575 453 635 c 1,19,20
 348 696 348 696 348 786 c 0,21,22
 348 891 348 891 440 944 c 0,23,24
 516 987 516 987 629 987 c 0,25,26
 717 987 717 987 791 948 c 1,27,28
 881 903 881 903 881 821 c 0,29,30
 881 793 881 793 872 760 c 1,31,-1
 723 758 l 1,32,33
 727 774 727 774 727 788 c 0,34,35
 727 901 727 901 616 901 c 0,36,37
 508 901 508 901 508 813 c 0,38,39
 508 754 508 754 631 688 c 1,40,41
 721 647 721 647 809 606 c 1,42,43
 915 543 915 543 915 444 c 0,0,1
EndSplineSet
EndChar

StartChar: t
Encoding: 84 116 87
Width: 969
Flags: W
LayerCount: 2
Fore
SplineSet
903 879 m 1,0,-1
 696 879 l 1,1,-1
 696 246 l 1,2,-1
 530 246 l 1,3,-1
 530 879 l 1,4,-1
 324 879 l 1,5,-1
 324 979 l 1,6,-1
 903 979 l 1,7,-1
 903 879 l 1,0,-1
EndSplineSet
EndChar

StartChar: u
Encoding: 85 117 88
Width: 977
Flags: W
LayerCount: 2
Fore
SplineSet
907 424 m 2,0,1
 907 225 907 225 623 225 c 0,2,3
 338 225 338 225 338 424 c 2,4,-1
 338 971 l 1,5,-1
 504 971 l 1,6,-1
 504 428 l 2,7,8
 504 313 504 313 623 313 c 0,9,10
 741 313 741 313 741 428 c 2,11,-1
 741 971 l 1,12,-1
 907 971 l 1,13,-1
 907 424 l 2,0,1
EndSplineSet
EndChar

StartChar: v
Encoding: 86 118 89
Width: 961
Flags: W
LayerCount: 2
Fore
SplineSet
942 979 m 1,0,-1
 733 246 l 1,1,-1
 514 246 l 1,2,-1
 301 979 l 1,3,-1
 475 979 l 1,4,-1
 625 375 l 1,5,-1
 768 979 l 1,6,-1
 942 979 l 1,0,-1
EndSplineSet
EndChar

StartChar: w
Encoding: 87 119 90
Width: 1393
Flags: W
LayerCount: 2
Fore
SplineSet
1339 979 m 1,0,-1
 1178 246 l 1,1,-1
 989 246 l 1,2,-1
 887 709 l 1,3,-1
 786 246 l 1,4,-1
 596 246 l 1,5,-1
 420 979 l 1,6,-1
 584 979 l 1,7,-1
 700 408 l 1,8,-1
 823 893 l 1,9,-1
 963 893 l 1,10,-1
 1075 406 l 1,11,-1
 1192 979 l 1,12,-1
 1339 979 l 1,0,-1
EndSplineSet
EndChar

StartChar: x
Encoding: 88 120 91
Width: 991
Flags: W
LayerCount: 2
Fore
SplineSet
928 246 m 1,0,-1
 750 246 l 1,1,-1
 604 541 l 1,2,-1
 457 246 l 1,3,-1
 297 246 l 1,4,-1
 522 647 l 1,5,-1
 332 979 l 1,6,-1
 508 979 l 1,7,-1
 621 735 l 1,8,-1
 735 979 l 1,9,-1
 893 979 l 1,10,-1
 700 647 l 1,11,-1
 928 246 l 1,0,-1
EndSplineSet
EndChar

StartChar: y
Encoding: 89 121 92
Width: 1024
Flags: W
LayerCount: 2
Fore
SplineSet
981 979 m 1,0,-1
 733 535 l 1,1,-1
 733 246 l 1,2,-1
 567 246 l 1,3,-1
 567 537 l 1,4,-1
 322 979 l 1,5,-1
 500 979 l 1,6,-1
 659 657 l 1,7,-1
 823 979 l 1,8,-1
 981 979 l 1,0,-1
EndSplineSet
EndChar

StartChar: z
Encoding: 90 122 93
Width: 846
Flags: W
LayerCount: 2
Fore
SplineSet
851 246 m 1,0,-1
 287 246 l 1,1,-1
 287 383 l 1,2,-1
 664 879 l 1,3,-1
 312 879 l 1,4,-1
 312 979 l 1,5,-1
 844 979 l 1,6,-1
 844 862 l 1,7,-1
 451 344 l 1,8,-1
 851 344 l 1,9,-1
 851 246 l 1,0,-1
EndSplineSet
EndChar

StartChar: braceleft
Encoding: 91 123 94
Width: 1026
Flags: W
LayerCount: 2
Fore
SplineSet
905 -297 m 1,0,-1
 829 -297 l 2,1,2
 711 -297 711 -297 653 -281 c 0,3,4
 483 -233 483 -233 457 -27 c 1,5,6
 449 152 449 152 438 328 c 1,7,8
 408 510 408 510 221 514 c 1,9,-1
 221 666 l 1,10,11
 387 674 387 674 428 829 c 1,12,13
 440 870 440 870 453 1149 c 0,14,15
 463 1348 463 1348 545 1413.5 c 128,-1,16
 627 1479 627 1479 905 1479 c 1,17,-1
 905 1346 l 1,18,19
 752 1348 752 1348 705 1286 c 1,20,21
 684 1262 684 1262 684 1100 c 1,22,23
 682 913 682 913 653 813 c 0,24,25
 604 649 604 649 467 590 c 1,26,27
 612 524 612 524 657 352 c 0,28,29
 680 268 680 268 686 51 c 0,30,31
 690 -111 690 -111 735 -139.5 c 128,-1,32
 780 -168 780 -168 905 -166 c 1,33,-1
 905 -297 l 1,0,-1
EndSplineSet
EndChar

StartChar: bar
Encoding: 92 124 95
Width: 979
Flags: W
LayerCount: 2
Fore
SplineSet
590 -305 m 1,0,-1
 389 -305 l 1,1,-1
 389 1225 l 1,2,-1
 590 1225 l 1,3,-1
 590 -305 l 1,0,-1
EndSplineSet
EndChar

StartChar: braceright
Encoding: 93 125 96
Width: 1012
Flags: W
LayerCount: 2
Fore
SplineSet
803 514 m 1,0,1
 637 506 637 506 596 348 c 1,2,3
 582 303 582 303 571 31 c 0,4,5
 563 -168 563 -168 487 -229 c 0,6,7
 401 -297 401 -297 119 -297 c 1,8,-1
 119 -166 l 1,9,10
 274 -168 274 -168 319 -106 c 0,11,12
 340 -78 340 -78 340 84 c 1,13,14
 342 270 342 270 371 369 c 1,15,16
 420 528 420 528 557 590 c 1,17,18
 410 655 410 655 367 827 c 0,19,20
 346 907 346 907 340 1126 c 1,21,22
 338 1288 338 1288 291 1318 c 128,-1,23
 244 1348 244 1348 119 1346 c 1,24,-1
 119 1477 l 1,25,-1
 154 1477 l 2,26,27
 418 1477 418 1477 500 1397 c 1,28,29
 559 1337 559 1337 569 1143 c 0,30,31
 582 893 582 893 602 827 c 0,32,33
 647 674 647 674 803 666 c 1,34,-1
 803 514 l 1,0,1
EndSplineSet
EndChar

StartChar: asciitilde
Encoding: 94 126 97
Width: 1372
Flags: W
LayerCount: 2
Fore
SplineSet
1262 629 m 1,0,1
 1102 506 1102 506 950 506 c 0,2,3
 858 506 858 506 692 577.5 c 128,-1,4
 526 649 526 649 436 649 c 0,5,6
 295 649 295 649 139 530 c 1,7,-1
 139 684 l 1,8,9
 299 807 299 807 449 807 c 0,10,11
 541 807 541 807 707.5 735.5 c 128,-1,12
 874 664 874 664 965 664 c 0,13,14
 1106 664 1106 664 1262 782 c 1,15,-1
 1262 629 l 1,0,1
EndSplineSet
EndChar

StartChar: currency
Encoding: 95 164 98
Width: 1024
Flags: W
LayerCount: 2
Fore
SplineSet
944 295 m 1,0,-1
 860 211 l 1,1,-1
 733 340 l 1,2,3
 627 266 627 266 508 266 c 0,4,5
 391 266 391 266 285 340 c 1,6,-1
 156 211 l 1,7,-1
 74 295 l 1,8,-1
 203 422 l 1,9,10
 131 532 131 532 131 645 c 256,11,12
 131 758 131 758 203 868 c 1,13,-1
 74 995 l 1,14,-1
 156 1077 l 1,15,-1
 285 950 l 1,16,17
 391 1024 391 1024 508 1024 c 0,18,19
 627 1024 627 1024 733 950 c 1,20,-1
 860 1077 l 1,21,-1
 944 995 l 1,22,-1
 815 868 l 1,23,24
 887 758 887 758 887 645 c 256,25,26
 887 532 887 532 815 422 c 1,27,-1
 944 295 l 1,0,-1
770 645 m 0,28,29
 770 756 770 756 693 831.5 c 128,-1,30
 616 907 616 907 506 907 c 0,31,32
 395 907 395 907 320.5 831.5 c 128,-1,33
 246 756 246 756 246 645 c 0,34,35
 246 537 246 537 321.5 460 c 128,-1,36
 397 383 397 383 506 383 c 0,37,38
 618 383 618 383 694 457.5 c 128,-1,39
 770 532 770 532 770 645 c 0,28,29
EndSplineSet
EndChar

StartChar: section
Encoding: 96 167 99
Width: 1151
Flags: W
LayerCount: 2
Fore
SplineSet
926 555 m 0,0,1
 926 422 926 422 770 319 c 1,2,3
 852 233 852 233 852 150 c 0,4,5
 852 51 852 51 769 -16.5 c 128,-1,6
 686 -84 686 -84 586 -84 c 0,7,8
 297 -84 297 -84 295 186 c 1,9,-1
 418 186 l 1,10,11
 418 20 418 20 565 20 c 0,12,13
 627 20 627 20 677 54 c 128,-1,14
 727 88 727 88 727 145 c 0,15,16
 727 225 727 225 600 305 c 1,17,18
 520 352 520 352 362 449 c 1,19,20
 236 543 236 543 236 655 c 0,21,22
 236 795 236 795 387 887 c 1,23,24
 315 965 315 965 315 1036 c 0,25,26
 315 1143 315 1143 392 1213.5 c 128,-1,27
 469 1284 469 1284 578 1284 c 0,28,29
 696 1284 696 1284 771 1211.5 c 128,-1,30
 846 1139 846 1139 850 1020 c 1,31,-1
 731 1020 l 1,32,33
 729 1178 729 1178 578 1178 c 0,34,35
 520 1178 520 1178 479 1144 c 128,-1,36
 438 1110 438 1110 438 1055 c 0,37,38
 438 983 438 983 586 887 c 1,39,40
 694 825 694 825 801 764 c 1,41,42
 926 672 926 672 926 555 c 0,0,1
813 528 m 0,43,44
 813 618 813 618 715 678 c 2,45,-1
 453 836 l 1,46,47
 350 778 350 778 350 684 c 0,48,49
 350 600 350 600 420 555 c 2,50,-1
 702 375 l 1,51,52
 813 434 813 434 813 528 c 0,43,44
EndSplineSet
EndChar

StartChar: copyright
Encoding: 97 169 100
Width: 1290
Flags: W
LayerCount: 2
Fore
SplineSet
1114 809 m 256,0,1
 1114 608 1114 608 975 470 c 128,-1,2
 836 332 836 332 635 332 c 256,3,4
 434 332 434 332 295 470 c 128,-1,5
 156 608 156 608 156 809 c 256,6,7
 156 1010 156 1010 295 1149 c 128,-1,8
 434 1288 434 1288 635 1288 c 256,9,10
 836 1288 836 1288 975 1149 c 128,-1,11
 1114 1010 1114 1010 1114 809 c 256,0,1
1077 809 m 0,12,13
 1077 995 1077 995 949 1122 c 128,-1,14
 821 1249 821 1249 635 1249 c 0,15,16
 451 1249 451 1249 323 1121 c 128,-1,17
 195 993 195 993 195 809 c 256,18,19
 195 625 195 625 323 497 c 128,-1,20
 451 369 451 369 635 369 c 256,21,22
 819 369 819 369 948 497 c 128,-1,23
 1077 625 1077 625 1077 809 c 0,12,13
881 627 m 1,24,25
 793 510 793 510 639 510 c 0,26,27
 508 510 508 510 420 593 c 128,-1,28
 332 676 332 676 332 805 c 0,29,30
 332 942 332 942 428 1031 c 128,-1,31
 524 1120 524 1120 664 1120 c 0,32,33
 705 1120 705 1120 756 1090 c 1,34,-1
 805 1057 l 1,35,36
 815 1057 815 1057 821 1087 c 1,37,-1
 850 1087 l 1,38,-1
 850 901 l 1,39,-1
 834 877 l 1,40,41
 788 1018 788 1018 725 1053 c 0,42,43
 694 1071 694 1071 655 1071 c 0,44,45
 418 1071 418 1071 418 819 c 0,46,47
 418 557 418 557 664 557 c 0,48,49
 705 557 705 557 762 589 c 128,-1,50
 819 621 819 621 848 653 c 1,51,52
 877 651 877 651 881 627 c 1,24,25
EndSplineSet
EndChar

StartChar: logicalnot
Encoding: 98 172 101
Width: 1153
Flags: W
LayerCount: 2
Fore
SplineSet
866 180 m 1,0,-1
 756 180 l 1,1,-1
 756 600 l 1,2,-1
 190 600 l 1,3,-1
 190 705 l 1,4,-1
 866 705 l 1,5,-1
 866 180 l 1,0,-1
EndSplineSet
EndChar

StartChar: registered
Encoding: 99 174 102
Width: 1305
Flags: W
LayerCount: 2
Fore
SplineSet
1133 836 m 0,0,1
 1133 633 1133 633 994.5 494.5 c 128,-1,2
 856 356 856 356 653 356 c 0,3,4
 453 356 453 356 313.5 495.5 c 128,-1,5
 174 635 174 635 174 836 c 0,6,7
 174 1036 174 1036 313.5 1174.5 c 128,-1,8
 453 1313 453 1313 653 1313 c 0,9,10
 854 1313 854 1313 993.5 1174.5 c 128,-1,11
 1133 1036 1133 1036 1133 836 c 0,0,1
1096 836 m 0,12,13
 1096 1020 1096 1020 967 1148 c 128,-1,14
 838 1276 838 1276 653 1276 c 0,15,16
 469 1276 469 1276 341 1148 c 128,-1,17
 213 1020 213 1020 213 836 c 0,18,19
 213 651 213 651 341 523 c 128,-1,20
 469 395 469 395 653 395 c 0,21,22
 840 395 840 395 968 522 c 128,-1,23
 1096 649 1096 649 1096 836 c 0,12,13
903 551 m 1,24,-1
 811 551 l 1,25,-1
 606 829 l 1,26,-1
 532 829 l 1,27,-1
 532 602 l 2,28,29
 532 563 532 563 580 551 c 1,30,-1
 418 551 l 1,31,32
 459 567 459 567 459 647 c 2,33,-1
 459 1044 l 2,34,35
 459 1114 459 1114 414 1124 c 1,36,-1
 651 1124 l 2,37,38
 725 1124 725 1124 778 1092 c 0,39,40
 842 1053 842 1053 842 983 c 0,41,42
 842 879 842 879 678 838 c 1,43,-1
 838 612 l 2,44,45
 872 563 872 563 903 551 c 1,24,-1
758 973 m 0,46,47
 758 1094 758 1094 604 1094 c 0,48,49
 567 1094 567 1094 532 1081 c 1,50,-1
 532 864 l 1,51,52
 645 866 645 866 676 874 c 0,53,54
 758 897 758 897 758 973 c 0,46,47
EndSplineSet
EndChar

StartChar: paragraph
Encoding: 101 182 103
Width: 1036
Flags: W
LayerCount: 2
Fore
SplineSet
795 -35 m 1,0,-1
 705 -35 l 1,1,-1
 705 1186 l 1,2,-1
 537 1186 l 1,3,-1
 537 -35 l 1,4,-1
 449 -35 l 1,5,-1
 449 766 l 1,6,7
 334 768 334 768 252 829 c 0,8,9
 160 897 160 897 160 1008 c 0,10,11
 160 1135 160 1135 252 1200 c 0,12,13
 332 1257 332 1257 465 1257 c 2,14,-1
 795 1257 l 1,15,-1
 795 -35 l 1,0,-1
EndSplineSet
EndChar

StartChar: periodcentered
Encoding: 102 183 104
Width: 840
Flags: W
LayerCount: 2
Fore
SplineSet
510 895 m 256,0,1
 510 862 510 862 487.5 836.5 c 128,-1,2
 465 811 465 811 432 811 c 0,3,4
 401 811 401 811 378.5 837.5 c 128,-1,5
 356 864 356 864 356 895 c 0,6,7
 356 928 356 928 378.5 953.5 c 128,-1,8
 401 979 401 979 432 979 c 0,9,10
 465 979 465 979 487.5 953.5 c 128,-1,11
 510 928 510 928 510 895 c 256,0,1
EndSplineSet
EndChar

StartChar: quoteleft
Encoding: 108 8216 105
Width: 582
Flags: W
LayerCount: 2
Fore
SplineSet
434 872 m 1,0,-1
 133 872 l 1,1,-1
 133 1171 l 2,2,3
 133 1415 133 1415 414 1468 c 1,4,-1
 414 1395 l 1,5,6
 242 1352 242 1352 244 1161 c 1,7,-1
 434 1161 l 1,8,-1
 434 872 l 1,0,-1
EndSplineSet
EndChar

StartChar: quoteright
Encoding: 109 8217 106
Width: 602
Flags: W
LayerCount: 2
Fore
SplineSet
480 1157 m 2,0,1
 480 911 480 911 199 858 c 1,2,-1
 199 934 l 1,3,4
 371 975 371 975 369 1165 c 1,5,-1
 178 1165 l 1,6,-1
 178 1454 l 1,7,-1
 480 1454 l 1,8,-1
 480 1157 l 2,0,1
EndSplineSet
EndChar

StartChar: quotedblleft
Encoding: 110 8220 107
Width: 1051
Flags: W
LayerCount: 2
Fore
SplineSet
958 1180 m 2,0,1
 958 944 958 944 677 899 c 1,2,-1
 677 997 l 1,3,4
 827 1028 827 1028 825 1171 c 1,5,-1
 677 1171 l 1,6,-1
 677 1423 l 1,7,-1
 958 1423 l 1,8,-1
 958 1180 l 2,0,1
468 1180 m 2,9,10
 468 944 468 944 188 899 c 1,11,-1
 188 997 l 1,12,13
 335 1030 335 1030 335 1171 c 1,14,-1
 188 1171 l 1,15,-1
 188 1423 l 1,16,-1
 468 1423 l 1,17,-1
 468 1180 l 2,9,10
EndSplineSet
EndChar

StartChar: quotedblright
Encoding: 111 8221 108
Width: 1051
Flags: W
LayerCount: 2
Fore
SplineSet
901 1012 m 1,0,-1
 620 1012 l 1,1,-1
 620 1255 l 2,2,3
 620 1493 620 1493 901 1538 c 1,4,-1
 901 1440 l 1,5,6
 751 1407 751 1407 753 1264 c 1,7,-1
 901 1264 l 1,8,-1
 901 1012 l 1,0,-1
411 1012 m 1,9,-1
 131 1012 l 1,10,-1
 131 1255 l 2,11,12
 131 1493 131 1493 411 1538 c 1,13,-1
 411 1440 l 1,14,15
 262 1407 262 1407 264 1264 c 1,16,-1
 411 1264 l 1,17,-1
 411 1012 l 1,9,-1
EndSplineSet
EndChar

StartChar: bullet
Encoding: 112 8226 109
Width: 1417
Flags: W
LayerCount: 2
Fore
SplineSet
1106 666 m 0,0,1
 1106 518 1106 518 971 426 c 1,2,3
 852 342 852 342 698 342 c 0,4,5
 551 342 551 342 436 428 c 1,6,7
 307 522 307 522 307 664 c 0,8,9
 307 811 307 811 438 903 c 1,10,11
 555 987 555 987 709 987 c 0,12,13
 856 987 856 987 975 901 c 0,14,15
 1106 807 1106 807 1106 666 c 0,0,1
EndSplineSet
EndChar

StartChar: H18543
Encoding: 114 9642 110
Width: 1346
Flags: W
LayerCount: 2
Fore
SplineSet
1020 356 m 1,0,-1
 350 356 l 1,1,-1
 350 899 l 1,2,-1
 1020 899 l 1,3,-1
 1020 356 l 1,0,-1
EndSplineSet
EndChar

StartChar: ellipsis
Encoding: 113 8230 111
Width: 1597
Flags: W
LayerCount: 2
Fore
SplineSet
1522 0 m 1,0,-1
 1221 0 l 1,1,-1
 1221 287 l 1,2,-1
 1522 287 l 1,3,-1
 1522 0 l 1,0,-1
999 0 m 1,4,-1
 700 0 l 1,5,-1
 700 287 l 1,6,-1
 999 287 l 1,7,-1
 999 0 l 1,4,-1
471 0 m 1,8,-1
 172 0 l 1,9,-1
 172 287 l 1,10,-1
 471 287 l 1,11,-1
 471 0 l 1,8,-1
EndSplineSet
EndChar

StartChar: afii57929
Encoding: 103 700 112
Width: 580
Flags: W
LayerCount: 2
Fore
SplineSet
463 1081 m 2,0,1
 463 829 463 829 182 774 c 1,2,-1
 182 852 l 1,3,4
 354 895 354 895 352 1090 c 1,5,-1
 162 1090 l 1,6,-1
 162 1378 l 1,7,-1
 463 1378 l 1,8,-1
 463 1081 l 2,0,1
EndSplineSet
EndChar

StartChar: macronlowmod
Encoding: 104 717 113
Width: 975
Flags: W
LayerCount: 2
Fore
SplineSet
856 0 m 1,0,-1
 152 0 l 1,1,-1
 152 186 l 1,2,-1
 856 186 l 1,3,-1
 856 0 l 1,0,-1
EndSplineSet
EndChar

StartChar: uniA4D0
Encoding: 118 42192 114
Width: 1225
Flags: W
LayerCount: 2
Fore
SplineSet
1139 313 m 0,0,1
 1139 2 1139 2 696 2 c 2,2,-1
 154 2 l 1,3,-1
 154 1223 l 1,4,-1
 618 1223 l 2,5,6
 809 1223 809 1223 934 1151 c 0,7,8
 1087 1063 1087 1063 1087 887 c 0,9,10
 1087 690 1087 690 764 623 c 1,11,12
 1139 551 1139 551 1139 313 c 0,0,1
805 864 m 0,13,14
 805 1075 805 1075 600 1075 c 2,15,-1
 430 1075 l 1,16,-1
 430 690 l 1,17,-1
 633 690 l 2,18,19
 805 690 805 690 805 864 c 0,13,14
842 340 m 0,20,21
 842 551 842 551 635 551 c 2,22,-1
 430 551 l 1,23,-1
 430 152 l 1,24,-1
 647 152 l 2,25,26
 842 152 842 152 842 340 c 0,20,21
EndSplineSet
EndChar

StartChar: uniA4D1
Encoding: 119 42193 115
Width: 1243
Flags: W
LayerCount: 2
Fore
SplineSet
1135 797 m 0,0,1
 1135 434 1135 434 651 434 c 0,2,3
 526 434 526 434 424 444 c 1,4,-1
 424 2 l 1,5,-1
 147 2 l 1,6,-1
 147 1223 l 1,7,-1
 666 1223 l 2,8,9
 1135 1223 1135 1223 1135 797 c 0,0,1
838 803 m 0,10,11
 838 948 838 948 773.5 1011.5 c 128,-1,12
 709 1075 709 1075 563 1075 c 2,13,-1
 424 1075 l 1,14,-1
 424 584 l 1,15,-1
 557 584 l 2,16,17
 838 584 838 584 838 803 c 0,10,11
EndSplineSet
EndChar

StartChar: uniA4D2
Encoding: 120 42194 116
Width: 1276
Flags: W
LayerCount: 2
Fore
SplineSet
1120 2 m 1,0,-1
 600 2 l 2,1,2
 133 2 133 2 133 428 c 0,3,4
 133 791 133 791 616 791 c 0,5,6
 741 791 741 791 844 782 c 1,7,-1
 844 1223 l 1,8,-1
 1120 1223 l 1,9,-1
 1120 2 l 1,0,-1
844 152 m 1,10,-1
 844 641 l 1,11,-1
 711 641 l 2,12,13
 430 641 430 641 430 424 c 0,14,15
 430 276 430 276 493.5 214 c 128,-1,16
 557 152 557 152 705 152 c 2,17,-1
 844 152 l 1,10,-1
EndSplineSet
EndChar

StartChar: uniA4D3
Encoding: 121 42195 117
Width: 1241
Flags: W
LayerCount: 2
Fore
SplineSet
1135 580 m 0,0,1
 1135 293 1135 293 1028 156 c 0,2,3
 907 2 907 2 629 2 c 2,4,-1
 150 2 l 1,5,-1
 150 1223 l 1,6,-1
 608 1223 l 2,7,8
 1135 1223 1135 1223 1135 580 c 0,0,1
838 526 m 0,9,10
 838 948 838 948 729 1030 c 0,11,12
 670 1075 670 1075 582 1075 c 2,13,-1
 426 1075 l 1,14,-1
 426 152 l 1,15,-1
 608 152 l 2,16,17
 750 152 750 152 803 279 c 0,18,19
 838 362 838 362 838 526 c 0,9,10
EndSplineSet
EndChar

StartChar: uniA4D4
Encoding: 122 42196 118
Width: 1206
Flags: W
LayerCount: 2
Fore
SplineSet
1096 1057 m 1,0,-1
 752 1057 l 1,1,-1
 752 2 l 1,2,-1
 475 2 l 1,3,-1
 475 1057 l 1,4,-1
 131 1057 l 1,5,-1
 131 1223 l 1,6,-1
 1096 1223 l 1,7,-1
 1096 1057 l 1,0,-1
EndSplineSet
EndChar

StartChar: uniA4D5
Encoding: 123 42197 119
Width: 1223
Flags: W
LayerCount: 2
Fore
SplineSet
1102 2 m 1,0,-1
 137 2 l 1,1,-1
 137 168 l 1,2,-1
 481 168 l 1,3,-1
 481 1223 l 1,4,-1
 758 1223 l 1,5,-1
 758 168 l 1,6,-1
 1102 168 l 1,7,-1
 1102 2 l 1,0,-1
EndSplineSet
EndChar

StartChar: uniA4D6
Encoding: 124 42198 120
Width: 1141
Flags: W
LayerCount: 2
Fore
SplineSet
1127 2 m 1,0,-1
 852 2 l 1,1,-1
 852 143 l 1,2,3
 730 -18 730 -18 525 -18 c 0,4,5
 420 -18 420 -18 322 37 c 0,6,7
 111 156 111 156 111 526 c 0,8,9
 111 866 111 866 199 1024 c 0,10,11
 320 1239 320 1239 629 1239 c 0,12,13
 805 1239 805 1239 930 1174 c 0,14,15
 1090 1090 1090 1090 1090 930 c 2,16,-1
 1090 864 l 1,17,-1
 811 858 l 1,18,19
 818 918 818 918 816 928 c 0,20,21
 797 1014 797 1014 755 1053 c 128,-1,22
 713 1092 713 1092 625 1092 c 0,23,24
 478 1092 478 1092 431 907 c 0,25,26
 406 811 406 811 406 606 c 0,27,28
 406 414 406 414 439 309 c 0,29,30
 492 139 492 139 644 139 c 0,31,32
 852 139 852 139 852 438 c 1,33,-1
 642 438 l 1,34,-1
 642 596 l 1,35,-1
 1127 596 l 1,36,-1
 1127 2 l 1,0,-1
EndSplineSet
EndChar

StartChar: uniA4D7
Encoding: 125 42199 121
Width: 1184
Flags: W
LayerCount: 2
Fore
SplineSet
1124 2 m 1,0,-1
 805 2 l 1,1,-1
 330 637 l 1,2,-1
 330 616 l 1,3,-1
 786 1223 l 1,4,-1
 1108 1223 l 1,5,-1
 614 639 l 1,6,-1
 1124 2 l 1,0,-1
391 2 m 1,7,-1
 125 2 l 1,8,-1
 125 1223 l 1,9,-1
 391 1223 l 1,10,-1
 391 2 l 1,7,-1
EndSplineSet
EndChar

StartChar: uniA4D8
Encoding: 126 42200 122
Width: 1278
Flags: W
LayerCount: 2
Fore
SplineSet
1116 2 m 1,0,-1
 850 2 l 1,1,-1
 850 512 l 1,2,-1
 911 586 l 1,3,-1
 453 2 l 1,4,-1
 131 2 l 1,5,-1
 629 588 l 1,6,-1
 115 1223 l 1,7,-1
 436 1223 l 1,8,-1
 850 655 l 1,9,-1
 850 1223 l 1,10,-1
 1116 1223 l 1,11,-1
 1116 2 l 1,0,-1
EndSplineSet
EndChar

StartChar: uniA4D9
Encoding: 127 42201 123
Width: 1059
Flags: W
LayerCount: 2
Fore
SplineSet
944 268 m 2,0,1
 944 -25 944 -25 535 -25 c 0,2,3
 362 -25 362 -25 252 43 c 1,4,5
 117 125 117 125 117 285 c 0,6,7
 117 365 117 365 160 494 c 1,8,-1
 399 496 l 1,9,10
 383 408 383 408 383 332 c 0,11,12
 383 143 383 143 532 143 c 0,13,14
 666 143 666 143 666 283 c 2,15,-1
 666 1221 l 1,16,-1
 944 1221 l 1,17,-1
 944 268 l 2,0,1
EndSplineSet
EndChar

StartChar: uniA4DA
Encoding: 128 42202 124
Width: 1278
Flags: W
LayerCount: 2
Fore
SplineSet
1165 287 m 0,0,1
 1163 123 1163 123 985 41 c 1,2,3
 850 -23 850 -23 666 -23 c 0,4,5
 381 -23 381 -23 258 109 c 1,6,7
 139 233 139 233 139 522 c 0,8,9
 139 885 139 885 227 1034 c 0,10,11
 348 1239 348 1239 682 1239 c 0,12,13
 827 1239 827 1239 944 1196 c 0,14,15
 1102 1139 1102 1139 1124 1022 c 0,16,17
 1130 991 1130 991 1108 883 c 1,18,-1
 842 881 l 1,19,20
 852 969 852 969 850 987 c 0,21,22
 840 1059 840 1059 782 1079 c 1,23,24
 750 1092 750 1092 659 1092 c 0,25,26
 436 1092 436 1092 436 717 c 2,27,-1
 436 463 l 2,28,29
 436 309 436 309 471 233 c 0,30,31
 520 125 520 125 657 125 c 0,32,33
 754 125 754 125 817 162 c 0,34,35
 895 207 895 207 889 297 c 1,36,37
 897 336 897 336 903 414 c 1,38,-1
 1163 414 l 1,39,40
 1167 397 1167 397 1165 287 c 0,0,1
EndSplineSet
EndChar

StartChar: uniA4DB
Encoding: 129 42203 125
Width: 1219
Flags: W
LayerCount: 2
Fore
SplineSet
1141 522 m 0,0,1
 1141 231 1141 231 1022 104 c 128,-1,2
 903 -23 903 -23 614 -23 c 0,3,4
 426 -23 426 -23 324 23 c 0,5,6
 184 86 184 86 147 244 c 0,7,8
 133 305 133 305 150 371 c 1,9,-1
 410 371 l 1,10,11
 406 348 406 348 416 295 c 0,12,13
 432 213 432 213 455 184 c 0,14,15
 502 125 502 125 623 125 c 0,16,17
 844 125 844 125 844 451 c 2,18,-1
 844 737 l 2,19,20
 844 1092 844 1092 621 1092 c 0,21,22
 426 1092 426 1092 430 926 c 1,23,24
 422 901 422 901 418 840 c 1,25,-1
 152 842 l 1,26,27
 145 868 145 868 150 901 c 0,28,29
 156 948 156 948 156 961 c 0,30,31
 154 1083 154 1083 299 1165 c 0,32,33
 430 1239 430 1239 598 1239 c 0,34,35
 932 1239 932 1239 1053 1034 c 0,36,37
 1141 885 1141 885 1141 522 c 0,0,1
EndSplineSet
EndChar

StartChar: uniA4DC
Encoding: 130 42204 126
Width: 1057
Flags: W
LayerCount: 2
Fore
SplineSet
1059 2 m 1,0,-1
 123 2 l 1,1,-1
 123 231 l 1,2,-1
 750 1057 l 1,3,-1
 162 1057 l 1,4,-1
 162 1223 l 1,5,-1
 1051 1223 l 1,6,-1
 1051 1030 l 1,7,-1
 395 166 l 1,8,-1
 1059 166 l 1,9,-1
 1059 2 l 1,0,-1
EndSplineSet
EndChar

StartChar: uniA4DD
Encoding: 131 42205 127
Width: 1098
Flags: W
LayerCount: 2
Fore
SplineSet
989 1059 m 1,0,-1
 428 1059 l 1,1,-1
 428 680 l 1,2,-1
 887 680 l 1,3,-1
 887 522 l 1,4,-1
 428 522 l 1,5,-1
 428 2 l 1,6,-1
 150 2 l 1,7,-1
 150 1223 l 1,8,-1
 989 1223 l 1,9,-1
 989 1059 l 1,0,-1
EndSplineSet
EndChar

StartChar: uniA4DE
Encoding: 132 42206 128
Width: 1124
Flags: W
LayerCount: 2
Fore
SplineSet
981 2 m 1,0,-1
 141 2 l 1,1,-1
 141 166 l 1,2,-1
 702 166 l 1,3,-1
 702 547 l 1,4,-1
 244 547 l 1,5,-1
 244 702 l 1,6,-1
 702 702 l 1,7,-1
 702 1223 l 1,8,-1
 981 1223 l 1,9,-1
 981 2 l 1,0,-1
EndSplineSet
EndChar

StartChar: uniA4DF
Encoding: 133 42207 129
Width: 1640
Flags: W
LayerCount: 2
Fore
SplineSet
1511 2 m 1,0,-1
 1245 2 l 1,1,-1
 1245 961 l 1,2,-1
 918 358 l 1,3,-1
 729 358 l 1,4,-1
 414 961 l 1,5,-1
 414 2 l 1,6,-1
 147 2 l 1,7,-1
 147 1223 l 1,8,-1
 494 1223 l 1,9,-1
 827 614 l 1,10,-1
 1165 1223 l 1,11,-1
 1511 1223 l 1,12,-1
 1511 2 l 1,0,-1
EndSplineSet
EndChar

StartChar: uniA4E0
Encoding: 134 42208 130
Width: 1229
Flags: W
LayerCount: 2
Fore
SplineSet
1098 2 m 1,0,-1
 864 2 l 1,1,-1
 406 844 l 1,2,-1
 406 2 l 1,3,-1
 150 2 l 1,4,-1
 150 1223 l 1,5,-1
 416 1223 l 1,6,-1
 842 432 l 1,7,-1
 842 1223 l 1,8,-1
 1098 1223 l 1,9,-1
 1098 2 l 1,0,-1
EndSplineSet
EndChar

StartChar: uniA4E1
Encoding: 135 42209 131
Width: 1051
Flags: W
LayerCount: 2
Fore
SplineSet
940 2 m 1,0,-1
 150 2 l 1,1,-1
 150 1223 l 1,2,-1
 428 1223 l 1,3,-1
 428 166 l 1,4,-1
 940 166 l 1,5,-1
 940 2 l 1,0,-1
EndSplineSet
EndChar

StartChar: uniA4E2
Encoding: 136 42210 132
Width: 1217
Flags: W
LayerCount: 2
Fore
SplineSet
1106 336 m 0,0,1
 1106 143 1106 143 944 51 c 0,2,3
 815 -23 815 -23 606 -23 c 0,4,5
 424 -23 424 -23 303 47 c 0,6,7
 154 133 154 133 154 301 c 0,8,9
 154 348 154 348 168 406 c 1,10,-1
 416 414 l 1,11,12
 408 369 408 369 408 328 c 0,13,14
 408 121 408 121 623 121 c 0,15,16
 827 121 827 121 827 301 c 0,17,18
 827 422 827 422 653 506 c 1,19,20
 653 506 653 506 334 653 c 1,21,22
 160 756 160 756 160 905 c 0,23,24
 160 1079 160 1079 315 1167 c 0,25,26
 440 1239 440 1239 629 1239 c 0,27,28
 776 1239 776 1239 897 1176 c 0,29,30
 1047 1098 1047 1098 1047 965 c 0,31,32
 1047 915 1047 915 1034 860 c 1,33,-1
 786 856 l 1,34,35
 791 885 791 885 791 907 c 0,36,37
 791 993 791 993 741.5 1044.5 c 128,-1,38
 692 1096 692 1096 606 1096 c 0,39,40
 535 1096 535 1096 481.5 1057 c 128,-1,41
 428 1018 428 1018 428 948 c 0,42,43
 428 842 428 842 604 758 c 0,44,45
 696 715 696 715 930 606 c 1,46,47
 1106 498 1106 498 1106 336 c 0,0,1
EndSplineSet
EndChar

StartChar: uniA4E3
Encoding: 137 42211 133
Width: 1241
Flags: W
LayerCount: 2
Fore
SplineSet
1128 2 m 1,0,-1
 844 2 l 1,1,-1
 819 215 l 1,2,3
 803 362 803 362 764 410 c 0,4,5
 711 475 711 475 608 489 c 1,6,7
 573 496 573 496 426 496 c 1,8,-1
 426 2 l 1,9,-1
 150 2 l 1,10,-1
 150 1223 l 1,11,-1
 705 1223 l 2,12,13
 889 1223 889 1223 999 1141 c 1,14,15
 1124 1051 1124 1051 1124 872 c 0,16,17
 1124 721 1124 721 997 641 c 0,18,19
 909 586 909 586 735 551 c 1,20,21
 938 520 938 520 1010 451 c 1,22,23
 1061 399 1061 399 1077 272 c 0,24,25
 1100 86 1100 86 1128 2 c 1,0,-1
834 836 m 0,26,27
 834 1075 834 1075 614 1075 c 2,28,-1
 426 1075 l 1,29,-1
 426 643 l 1,30,-1
 618 643 l 2,31,32
 715 643 715 643 774.5 692 c 128,-1,33
 834 741 834 741 834 836 c 0,26,27
EndSplineSet
EndChar

StartChar: uniA4E4
Encoding: 138 42212 134
Width: 1272
Flags: W
LayerCount: 2
Fore
SplineSet
1128 2 m 1,0,-1
 573 2 l 2,1,2
 389 2 389 2 279 84 c 0,3,4
 154 176 154 176 154 354 c 0,5,6
 154 602 154 602 543 674 c 1,7,8
 338 705 338 705 268 774 c 0,9,10
 217 825 217 825 201 952 c 0,11,12
 178 1141 178 1141 150 1223 c 1,13,-1
 436 1223 l 1,14,15
 442 1151 442 1151 459 1012 c 0,16,17
 473 905 473 905 492 860 c 1,18,19
 522 784 522 784 596 754 c 1,20,21
 643 731 643 731 805 731 c 2,22,-1
 854 731 l 1,23,-1
 854 1223 l 1,24,-1
 1128 1223 l 1,25,-1
 1128 2 l 1,0,-1
854 152 m 1,26,-1
 854 582 l 1,27,-1
 662 582 l 2,28,29
 565 582 565 582 505.5 532.5 c 128,-1,30
 446 483 446 483 446 389 c 0,31,32
 446 152 446 152 666 152 c 2,33,-1
 854 152 l 1,26,-1
EndSplineSet
EndChar

StartChar: uniA4E5
Encoding: 139 42213 135
Width: 1180
Flags: W
LayerCount: 2
Fore
SplineSet
1151 2 m 1,0,-1
 861 2 l 1,1,-1
 613 1024 l 1,2,-1
 373 2 l 1,3,-1
 82 2 l 1,4,-1
 437 1223 l 1,5,-1
 797 1223 l 1,6,-1
 1151 2 l 1,0,-1
EndSplineSet
EndChar

StartChar: uniA4E6
Encoding: 140 42214 136
Width: 1200
Flags: W
LayerCount: 2
Fore
SplineSet
1169 1223 m 1,0,-1
 823 2 l 1,1,-1
 457 2 l 1,2,-1
 102 1223 l 1,3,-1
 393 1223 l 1,4,-1
 641 217 l 1,5,-1
 880 1223 l 1,6,-1
 1169 1223 l 1,0,-1
EndSplineSet
EndChar

StartChar: uniA4E7
Encoding: 141 42215 137
Width: 1217
Flags: W
LayerCount: 2
Fore
SplineSet
1096 2 m 1,0,-1
 819 2 l 1,1,-1
 819 590 l 1,2,-1
 426 590 l 1,3,-1
 426 2 l 1,4,-1
 150 2 l 1,5,-1
 150 1223 l 1,6,-1
 426 1223 l 1,7,-1
 426 745 l 1,8,-1
 819 745 l 1,9,-1
 819 1223 l 1,10,-1
 1096 1223 l 1,11,-1
 1096 2 l 1,0,-1
EndSplineSet
EndChar

StartChar: uniA4E8
Encoding: 142 42216 138
Width: 1294
Flags: W
LayerCount: 2
Fore
SplineSet
1167 694 m 0,0,1
 1167 358 1167 358 1077 197 c 0,2,3
 958 -18 958 -18 649 -18 c 0,4,5
 467 -18 467 -18 346 45 c 1,6,7
 193 127 193 127 188 291 c 0,8,9
 188 303 188 303 190 356 c 1,10,-1
 469 362 l 1,11,12
 463 326 463 326 463 293 c 0,13,14
 463 131 463 131 653 131 c 0,15,16
 801 131 801 131 848 315 c 0,17,18
 872 412 872 412 872 621 c 0,19,20
 872 811 872 811 840 913 c 0,21,22
 786 1081 786 1081 635 1081 c 0,23,24
 426 1081 426 1081 426 862 c 1,25,26
 426 883 426 883 428 803 c 1,27,-1
 637 803 l 1,28,-1
 637 647 l 1,29,-1
 152 647 l 1,30,-1
 152 1219 l 1,31,-1
 428 1219 l 1,32,-1
 428 1079 l 1,33,34
 549 1239 549 1239 754 1239 c 0,35,36
 973 1239 973 1239 1079 1067 c 0,37,38
 1167 926 1167 926 1167 694 c 0,0,1
EndSplineSet
EndChar

StartChar: uniA4E9
Encoding: 143 42217 139
Width: 1100
Flags: W
LayerCount: 2
Fore
SplineSet
987 950 m 0,0,1
 987 870 987 870 944 741 c 1,2,-1
 705 739 l 1,3,4
 721 825 721 825 721 901 c 0,5,6
 721 1092 721 1092 571 1092 c 0,7,8
 438 1092 438 1092 438 952 c 2,9,-1
 438 12 l 1,10,-1
 160 12 l 1,11,-1
 160 965 l 2,12,13
 160 1260 160 1260 569 1260 c 0,14,15
 741 1260 741 1260 852 1192 c 0,16,17
 987 1110 987 1110 987 950 c 0,0,1
EndSplineSet
EndChar

StartChar: uniA4EA
Encoding: 144 42218 140
Width: 1735
Flags: W
LayerCount: 2
Fore
SplineSet
1645 1223 m 1,0,-1
 1376 2 l 1,1,-1
 1061 2 l 1,2,-1
 893 772 l 1,3,-1
 723 2 l 1,4,-1
 406 2 l 1,5,-1
 115 1223 l 1,6,-1
 387 1223 l 1,7,-1
 582 272 l 1,8,-1
 784 1079 l 1,9,-1
 1018 1079 l 1,10,-1
 1204 268 l 1,11,-1
 1401 1223 l 1,12,-1
 1645 1223 l 1,0,-1
EndSplineSet
EndChar

StartChar: uniA4EB
Encoding: 145 42219 141
Width: 1243
Flags: W
LayerCount: 2
Fore
SplineSet
1139 2 m 1,0,-1
 842 2 l 1,1,-1
 600 492 l 1,2,-1
 352 2 l 1,3,-1
 86 2 l 1,4,-1
 463 670 l 1,5,-1
 143 1223 l 1,6,-1
 438 1223 l 1,7,-1
 627 817 l 1,8,-1
 817 1223 l 1,9,-1
 1081 1223 l 1,10,-1
 760 670 l 1,11,-1
 1139 2 l 1,0,-1
EndSplineSet
EndChar

StartChar: uniA4EC
Encoding: 146 42220 142
Width: 1274
Flags: W
LayerCount: 2
Fore
SplineSet
1200 1223 m 1,0,-1
 786 481 l 1,1,-1
 786 2 l 1,2,-1
 510 2 l 1,3,-1
 510 485 l 1,4,-1
 102 1223 l 1,5,-1
 397 1223 l 1,6,-1
 664 686 l 1,7,-1
 938 1223 l 1,8,-1
 1200 1223 l 1,0,-1
EndSplineSet
EndChar

StartChar: uniA4ED
Encoding: 147 42221 143
Width: 1227
Flags: W
LayerCount: 2
Fore
SplineSet
1118 2 m 1,0,-1
 651 2 l 2,1,2
 461 2 461 2 338 74 c 1,3,4
 184 162 184 162 184 338 c 0,5,6
 184 535 184 535 508 602 c 1,7,8
 133 674 133 674 133 911 c 0,9,10
 133 1223 133 1223 575 1223 c 2,11,-1
 1118 1223 l 1,12,-1
 1118 2 l 1,0,-1
842 680 m 1,13,-1
 842 1073 l 1,14,-1
 625 1073 l 2,15,16
 430 1073 430 1073 430 885 c 0,17,18
 430 795 430 795 488.5 737.5 c 128,-1,19
 547 680 547 680 637 680 c 2,20,-1
 842 680 l 1,13,-1
842 150 m 1,21,-1
 842 528 l 1,22,-1
 659 528 l 2,23,24
 584 528 584 528 525.5 481 c 128,-1,25
 467 434 467 434 467 360 c 0,26,27
 467 150 467 150 672 150 c 2,28,-1
 842 150 l 1,21,-1
EndSplineSet
EndChar

StartChar: uniA4EE
Encoding: 148 42222 144
Width: 1268
Flags: W
LayerCount: 2
Fore
SplineSet
1200 2 m 1,0,-1
 909 2 l 1,1,-1
 856 236 l 1,2,-1
 424 236 l 1,3,-1
 369 2 l 1,4,-1
 80 2 l 1,5,-1
 446 1223 l 1,6,-1
 825 1223 l 1,7,-1
 1200 2 l 1,0,-1
831 406 m 1,8,-1
 635 1051 l 1,9,-1
 446 406 l 1,10,-1
 831 406 l 1,8,-1
EndSplineSet
EndChar

StartChar: uniA4EF
Encoding: 149 42223 145
Width: 1182
Flags: W
LayerCount: 2
Fore
SplineSet
1192 1223 m 1,0,-1
 826 2 l 1,1,-1
 465 2 l 1,2,-1
 90 1223 l 1,3,-1
 383 1223 l 1,4,-1
 435 989 l 1,5,-1
 854 989 l 1,6,-1
 924 1223 l 1,7,-1
 1192 1223 l 1,0,-1
832 819 m 1,8,-1
 457 819 l 1,9,-1
 648 201 l 1,10,-1
 832 819 l 1,8,-1
EndSplineSet
EndChar

StartChar: uniA4F0
Encoding: 150 42224 146
Width: 1161
Flags: W
LayerCount: 2
Fore
SplineSet
1051 2 m 1,0,-1
 168 2 l 1,1,-1
 168 1223 l 1,2,-1
 987 1223 l 1,3,-1
 987 1057 l 1,4,-1
 444 1057 l 1,5,-1
 444 707 l 1,6,-1
 909 707 l 1,7,-1
 909 549 l 1,8,-1
 444 549 l 1,9,-1
 444 166 l 1,10,-1
 1051 166 l 1,11,-1
 1051 2 l 1,0,-1
EndSplineSet
EndChar

StartChar: uniA4F1
Encoding: 151 42225 147
Width: 1180
Flags: W
LayerCount: 2
Fore
SplineSet
1026 2 m 1,0,-1
 143 2 l 1,1,-1
 143 166 l 1,2,-1
 750 166 l 1,3,-1
 750 549 l 1,4,-1
 287 549 l 1,5,-1
 287 707 l 1,6,-1
 750 707 l 1,7,-1
 750 1057 l 1,8,-1
 207 1057 l 1,9,-1
 207 1223 l 1,10,-1
 1026 1223 l 1,11,-1
 1026 2 l 1,0,-1
EndSplineSet
EndChar

StartChar: uniA4F2
Encoding: 152 42226 148
Width: 633
Flags: W
LayerCount: 2
Fore
SplineSet
467 2 m 1,0,-1
 209 2 l 1,1,-1
 209 1223 l 1,2,-1
 467 1223 l 1,3,-1
 467 2 l 1,0,-1
EndSplineSet
EndChar

StartChar: uniA4F3
Encoding: 153 42227 149
Width: 1298
Flags: W
LayerCount: 2
Fore
SplineSet
1161 565 m 0,0,1
 1161 262 1161 262 1061 129 c 1,2,3
 944 -23 944 -23 649 -23 c 256,4,5
 354 -23 354 -23 238 129 c 0,6,7
 137 262 137 262 137 565 c 0,8,9
 137 887 137 887 229 1040 c 0,10,11
 348 1239 348 1239 649 1239 c 256,12,13
 950 1239 950 1239 1069 1040 c 0,14,15
 1161 887 1161 887 1161 565 c 0,0,1
879 674 m 0,16,17
 879 1092 879 1092 649 1092 c 0,18,19
 420 1092 420 1092 420 674 c 0,20,21
 420 410 420 410 436 334 c 0,22,23
 481 125 481 125 649 125 c 0,24,25
 760 125 760 125 819.5 210 c 128,-1,26
 879 295 879 295 879 674 c 0,16,17
EndSplineSet
EndChar

StartChar: uniA4F4
Encoding: 154 42228 150
Width: 1214
Flags: W
LayerCount: 2
Fore
SplineSet
1096 307 m 2,0,1
 1096 -25 1096 -25 623 -25 c 256,2,3
 150 -25 150 -25 150 307 c 2,4,-1
 150 1221 l 1,5,-1
 426 1221 l 1,6,-1
 426 315 l 2,7,8
 426 125 426 125 623 125 c 0,9,10
 819 125 819 125 819 315 c 2,11,-1
 819 1221 l 1,12,-1
 1096 1221 l 1,13,-1
 1096 307 l 2,0,1
EndSplineSet
EndChar

StartChar: uniA4F5
Encoding: 155 42229 151
Width: 1249
Flags: W
LayerCount: 2
Fore
SplineSet
1106 -25 m 1,0,-1
 829 -25 l 1,1,-1
 829 883 l 2,2,3
 829 1073 829 1073 633 1073 c 0,4,5
 436 1073 436 1073 436 883 c 2,6,-1
 436 -25 l 1,7,-1
 160 -25 l 1,8,-1
 160 891 l 2,9,10
 160 1221 160 1221 633 1221 c 256,11,12
 1106 1221 1106 1221 1106 891 c 2,13,-1
 1106 -25 l 1,0,-1
EndSplineSet
EndChar

StartChar: uniA4F6
Encoding: 156 42230 152
Width: 1047
Flags: W
LayerCount: 2
Fore
SplineSet
895 2 m 1,0,-1
 616 2 l 1,1,-1
 616 1059 l 1,2,-1
 104 1059 l 1,3,-1
 104 1223 l 1,4,-1
 895 1223 l 1,5,-1
 895 2 l 1,0,-1
EndSplineSet
EndChar

StartChar: uniA4F7
Encoding: 157 42231 153
Width: 1253
Flags: W
LayerCount: 2
Fore
SplineSet
1118 2 m 1,0,-1
 639 2 l 2,1,2
 360 2 360 2 240 156 c 0,3,4
 133 293 133 293 133 580 c 0,5,6
 133 1223 133 1223 659 1223 c 2,7,-1
 1118 1223 l 1,8,-1
 1118 2 l 1,0,-1
842 152 m 1,9,-1
 842 1075 l 1,10,-1
 686 1075 l 2,11,12
 598 1075 598 1075 539 1030 c 0,13,14
 430 948 430 948 430 526 c 0,15,16
 430 362 430 362 465 279 c 0,17,18
 518 152 518 152 659 152 c 2,19,-1
 842 152 l 1,9,-1
EndSplineSet
EndChar

StartChar: uniA4F8
Encoding: 158 42232 154
Width: 575
Flags: W
LayerCount: 2
Fore
SplineSet
471 0 m 1,0,-1
 170 0 l 1,1,-1
 170 297 l 1,2,-1
 471 297 l 1,3,-1
 471 0 l 1,0,-1
EndSplineSet
EndChar

StartChar: uniA4F9
Encoding: 159 42233 155
Width: 526
Flags: W
LayerCount: 2
Fore
SplineSet
444 -4 m 2,0,1
 444 -256 444 -256 163 -311 c 1,2,-1
 163 -233 l 1,3,4
 335 -190 335 -190 333 4 c 1,5,-1
 143 4 l 1,6,-1
 143 293 l 1,7,-1
 444 293 l 1,8,-1
 444 -4 l 2,0,1
EndSplineSet
EndChar

StartChar: uniA4FA
Encoding: 160 42234 156
Width: 961
Flags: W
LayerCount: 2
Fore
SplineSet
974 0 m 1,0,-1
 675 0 l 1,1,-1
 675 287 l 1,2,-1
 974 287 l 1,3,-1
 974 0 l 1,0,-1
446 0 m 1,4,-1
 147 0 l 1,5,-1
 147 287 l 1,6,-1
 446 287 l 1,7,-1
 446 0 l 1,4,-1
EndSplineSet
EndChar

StartChar: uniA4FB
Encoding: 161 42235 157
Width: 981
Flags: W
LayerCount: 2
Fore
SplineSet
962 -4 m 2,0,1
 962 -250 962 -250 682 -303 c 1,2,-1
 682 -227 l 1,3,4
 854 -186 854 -186 852 4 c 1,5,-1
 661 4 l 1,6,-1
 661 285 l 1,7,-1
 962 285 l 1,8,-1
 962 -4 l 2,0,1
436 0 m 1,9,-1
 135 0 l 1,10,-1
 135 287 l 1,11,-1
 436 287 l 1,12,-1
 436 0 l 1,9,-1
EndSplineSet
EndChar

StartChar: uniA4FC
Encoding: 162 42236 158
Width: 559
Flags: W
LayerCount: 2
Fore
SplineSet
444 604 m 1,0,-1
 143 604 l 1,1,-1
 143 893 l 1,2,-1
 444 893 l 1,3,-1
 444 604 l 1,0,-1
444 -8 m 2,4,5
 444 -252 444 -252 163 -305 c 1,6,-1
 163 -229 l 1,7,8
 335 -188 335 -188 333 2 c 1,9,-1
 143 2 l 1,10,-1
 143 291 l 1,11,-1
 444 291 l 1,12,-1
 444 -8 l 2,4,5
EndSplineSet
EndChar

StartChar: uniA4FD
Encoding: 163 42237 159
Width: 569
Flags: W
LayerCount: 2
Fore
SplineSet
453 600 m 1,0,-1
 152 600 l 1,1,-1
 152 887 l 1,2,-1
 453 887 l 1,3,-1
 453 600 l 1,0,-1
453 0 m 1,4,-1
 152 0 l 1,5,-1
 152 287 l 1,6,-1
 453 287 l 1,7,-1
 453 0 l 1,4,-1
EndSplineSet
EndChar

StartChar: uniA4FE
Encoding: 164 42238 160
Width: 1186
Flags: W
LayerCount: 2
Fore
SplineSet
1145 0 m 1,0,-1
 846 0 l 1,1,-1
 846 287 l 1,2,-1
 1145 287 l 1,3,-1
 1145 0 l 1,0,-1
834 477 m 1,4,-1
 201 477 l 1,5,-1
 201 664 l 1,6,-1
 834 664 l 1,7,-1
 834 477 l 1,4,-1
EndSplineSet
EndChar

StartChar: uniA4FF
Encoding: 165 42239 161
Width: 1305
Flags: W
LayerCount: 2
Fore
SplineSet
1100 651 m 1,0,-1
 182 651 l 1,1,-1
 182 807 l 1,2,-1
 1100 807 l 1,3,-1
 1100 651 l 1,0,-1
1100 274 m 1,4,-1
 182 274 l 1,5,-1
 182 430 l 1,6,-1
 1100 430 l 1,7,-1
 1100 274 l 1,4,-1
EndSplineSet
EndChar

StartChar: endash
Encoding: 106 8211 162
Width: 922
Flags: W
LayerCount: 2
Fore
SplineSet
934 375 m 1,0,-1
 -12 375 l 1,1,-1
 -12 561 l 1,2,-1
 934 561 l 1,3,-1
 934 375 l 1,0,-1
EndSplineSet
EndChar

StartChar: emdash
Encoding: 107 8212 163
Width: 1843
Flags: W
LayerCount: 2
Fore
SplineSet
1858 375 m 1,0,-1
 -14 375 l 1,1,-1
 -14 561 l 1,2,-1
 1858 561 l 1,3,-1
 1858 375 l 1,0,-1
EndSplineSet
EndChar

StartChar: blackstar
Encoding: 115 9733 164
Width: 1845
Flags: W
LayerCount: 2
Fore
SplineSet
1456 872 m 1,0,-1
 1122 618 l 1,1,-1
 1251 211 l 1,2,-1
 918 463 l 1,3,-1
 582 211 l 1,4,-1
 709 618 l 1,5,-1
 375 872 l 1,6,-1
 788 872 l 1,7,-1
 918 1282 l 1,8,-1
 1044 872 l 1,9,-1
 1456 872 l 1,0,-1
EndSplineSet
EndChar

StartChar: hyphentwo
Encoding: 105 8208 165
Width: 885
Flags: W
LayerCount: 2
Fore
SplineSet
809 539 m 1,0,-1
 164 539 l 1,1,-1
 164 725 l 1,2,-1
 809 725 l 1,3,-1
 809 539 l 1,0,-1
EndSplineSet
EndChar

StartChar: degree
Encoding: 100 176 166
Width: 766
Flags: W
LayerCount: 2
Fore
SplineSet
541 1382 m 0,0,1
 541 1284 541 1284 475.5 1218.5 c 128,-1,2
 410 1153 410 1153 311 1153 c 0,3,4
 217 1153 217 1153 149.5 1220.5 c 128,-1,5
 82 1288 82 1288 82 1382 c 0,6,7
 82 1477 82 1477 149.5 1544.5 c 128,-1,8
 217 1612 217 1612 311 1612 c 0,9,10
 406 1612 406 1612 473.5 1544.5 c 128,-1,11
 541 1477 541 1477 541 1382 c 0,0,1
502 1382 m 0,12,13
 502 1464 502 1464 447.5 1518.5 c 128,-1,14
 393 1573 393 1573 311 1573 c 0,15,16
 231 1573 231 1573 176 1517.5 c 128,-1,17
 121 1462 121 1462 121 1382 c 0,18,19
 121 1303 121 1303 176 1247.5 c 128,-1,20
 231 1192 231 1192 311 1192 c 0,21,22
 389 1192 389 1192 445.5 1248.5 c 128,-1,23
 502 1305 502 1305 502 1382 c 0,12,13
EndSplineSet
EndChar

StartChar: dblanglebracketleft
Encoding: 116 12298 167
Width: 1100
Flags: W
LayerCount: 2
Fore
SplineSet
918 -22 m 1,0,-1
 571 666 l 1,1,-1
 918 1356 l 1,2,3
 945 1342 945 1342 973 1329.5 c 128,-1,4
 1001 1317 1001 1317 1028 1303 c 1,5,-1
 709 666 l 1,6,7
 747 590 747 590 787.5 509.5 c 128,-1,8
 828 429 828 429 868.5 347.5 c 128,-1,9
 909 266 909 266 949.5 185.5 c 128,-1,10
 990 105 990 105 1028 29 c 1,11,-1
 918 -22 l 1,0,-1
638 -22 m 1,12,-1
 291 666 l 1,13,-1
 638 1356 l 1,14,-1
 747 1303 l 1,15,16
 667 1143 667 1143 588 984.5 c 128,-1,17
 509 826 509 826 428 666 c 1,18,19
 466 590 466 590 506.5 509.5 c 128,-1,20
 547 429 547 429 588 347.5 c 128,-1,21
 629 266 629 266 669 185.5 c 128,-1,22
 709 105 709 105 747 29 c 1,23,-1
 638 -22 l 1,12,-1
EndSplineSet
EndChar

StartChar: dblanglebracketright
Encoding: 117 12299 168
Width: 1100
Flags: W
LayerCount: 2
Fore
SplineSet
90 28 m 1,0,1
 171 189 171 189 250.5 347 c 128,-1,2
 330 505 330 505 410 666 c 1,3,4
 372 742 372 742 331.5 823 c 128,-1,5
 291 904 291 904 250 986 c 128,-1,6
 209 1068 209 1068 168.5 1149 c 128,-1,7
 128 1230 128 1230 90 1306 c 1,8,9
 119 1318 119 1318 146 1330.5 c 128,-1,10
 173 1343 173 1343 201 1356 c 1,11,-1
 547 666 l 1,12,-1
 201 -23 l 1,13,-1
 90 28 l 1,0,1
371 28 m 1,14,-1
 690 666 l 1,15,16
 652 742 652 742 611.5 823 c 128,-1,17
 571 904 571 904 530.5 986 c 128,-1,18
 490 1068 490 1068 449.5 1149 c 128,-1,19
 409 1230 409 1230 371 1306 c 1,20,21
 399 1318 399 1318 426 1330.5 c 128,-1,22
 453 1343 453 1343 482 1356 c 1,23,24
 568 1182 568 1182 654.5 1011 c 128,-1,25
 741 840 741 840 827 666 c 1,26,27
 741 492 741 492 654.5 321 c 128,-1,28
 568 150 568 150 482 -23 c 1,29,-1
 371 28 l 1,14,-1
EndSplineSet
EndChar

StartChar: uni02D7
Encoding: 169 727 169
Width: 885
Flags: W
LayerCount: 2
Fore
SplineSet
809 539 m 1,0,-1
 164 539 l 1,1,-1
 164 725 l 1,2,-1
 809 725 l 1,3,-1
 809 539 l 1,0,-1
EndSplineSet
EndChar
